<?xml version="1.0" encoding="UTF-8"?>
<svg width="821px" height="218px" viewBox="0 0 821 218" version="1.1" xmlns="http://www.w3.org/2000/svg" xmlns:xlink="http://www.w3.org/1999/xlink">
    <!-- Generator: sketchtool 50.2 (55047) - http://www.bohemiancoding.com/sketch -->
    <title>5A3F7944-69C1-4F63-A51C-48BFBF581383</title>
    <desc>Created with sketchtool.</desc>
    <defs>
        <rect id="path-1" x="37" y="9" width="742" height="192" rx="8"></rect>
        <filter x="-2.5%" y="-9.6%" width="105.5%" height="121.4%" filterUnits="objectBoundingBox" id="filter-2">
            <feOffset dx="2" dy="2" in="SourceAlpha" result="shadowOffsetOuter1"></feOffset>
            <feGaussianBlur stdDeviation="6.5" in="shadowOffsetOuter1" result="shadowBlurOuter1"></feGaussianBlur>
            <feColorMatrix values="0 0 0 0 0   0 0 0 0 0   0 0 0 0 0  0 0 0 0.200945426 0" type="matrix" in="shadowBlurOuter1"></feColorMatrix>
        </filter>
    </defs>
    <g id="Blog" stroke="none" stroke-width="1" fill="none" fill-rule="evenodd">
        <g id="1.2_Blog_Article" transform="translate(-180.000000, -1360.000000)">
            <g id="Group-16" transform="translate(180.000000, 1362.000000)">
                <g id="Rectangle-8">
                    <use fill="black" fill-opacity="1" filter="url(#filter-2)" xlink:href="#path-1"></use>
                    <use fill="#FFFFFF" fill-rule="evenodd" xlink:href="#path-1"></use>
                </g>
                <path d="M44.5909993,38.3902006 L25.8521996,38.3902006 L29.6473995,20.1258008 C30.200869,17.5165878 30.9915277,15.0457792 32.0193995,12.7133009 C33.0472713,10.3808226 34.4309241,8.32510988 36.1703994,6.54610101 C37.9098748,4.76709214 40.1039528,3.32413992 42.7526994,2.21720107 C45.4014459,1.11026221 48.6629132,0.477735211 52.5371992,0.319601089 L50.7581993,8.62160098 C47.2792486,9.25413747 44.80844,10.4796585 43.3456994,12.2982009 C41.8829587,14.1167433 40.8353359,16.7259172 40.2027994,20.1258008 L48.3861993,20.1258008 L44.5909993,38.3902006 Z M19.5663997,38.3902006 L0.827599899,38.3902006 L4.62279985,20.1258008 C5.17626928,17.5165878 5.96692803,15.0457792 6.99479982,12.7133009 C8.02267161,10.3808226 9.40632442,8.32510988 11.1457998,6.54610101 C12.8852751,4.76709214 15.0793531,3.32413992 17.7280997,2.21720107 C20.3768462,1.11026221 23.6383136,0.477735211 27.5125996,0.319601089 L25.7335996,8.62160098 C22.2546489,9.25413747 19.7838403,10.4796585 18.3210997,12.2982009 C16.858359,14.1167433 15.8107362,16.7259172 15.1781997,20.1258008 L23.3615996,20.1258008 L19.5663997,38.3902006 Z" id="“" fill="#90918D"></path>
                <path d="M776.418,171.319601 L795.1568,171.319601 L791.3616,189.584001 C790.80813,192.272281 790.017471,194.782622 788.9896,197.115101 C787.961728,199.447579 786.578075,201.503292 784.8386,203.282301 C783.099124,205.06131 780.905046,206.484495 778.2563,207.551901 C775.607553,208.619306 772.346086,209.232066 768.4718,209.390201 L770.2508,201.088201 C773.729751,200.455664 776.200559,199.230143 777.6633,197.411601 C779.12604,195.593058 780.173663,192.983884 780.8062,189.584001 L772.6228,189.584001 L776.418,171.319601 Z M801.442599,171.319601 L820.181399,171.319601 L816.386199,189.584001 C815.83273,192.272281 815.042071,194.782622 814.014199,197.115101 C812.986328,199.447579 811.602675,201.503292 809.863199,203.282301 C808.123724,205.06131 805.929646,206.484495 803.280899,207.551901 C800.632153,208.619306 797.370686,209.232066 793.4964,209.390201 L795.2754,201.088201 C798.75435,200.455664 801.225159,199.230143 802.687899,197.411601 C804.15064,195.593058 805.198263,192.983884 805.830799,189.584001 L797.6474,189.584001 L801.442599,171.319601 Z" id="”" fill="#90918D"></path>
            </g>
        </g>
    </g>
</svg>