<?xml version="1.0" encoding="UTF-8"?>
<svg width="53px" height="39px" viewBox="0 0 53 39" version="1.1" xmlns="http://www.w3.org/2000/svg" xmlns:xlink="http://www.w3.org/1999/xlink">
    <!-- Generator: sketchtool 50.2 (55047) - http://www.bohemiancoding.com/sketch -->
    <title>55EDF514-2640-47AA-8791-7C1E6E04EAC5</title>
    <desc>Created with sketchtool.</desc>
    <defs></defs>
    <g id="Blog" stroke="none" stroke-width="1" fill="none" fill-rule="evenodd">
        <g id="1.2_Blog_Article" transform="translate(-180.000000, -1362.000000)" fill="#90918D">
            <g id="Group-16" transform="translate(180.000000, 1362.000000)">
                <path d="M44.5909993,38.3902006 L25.8521996,38.3902006 L29.6473995,20.1258008 C30.200869,17.5165878 30.9915277,15.0457792 32.0193995,12.7133009 C33.0472713,10.3808226 34.4309241,8.32510988 36.1703994,6.54610101 C37.9098748,4.76709214 40.1039528,3.32413992 42.7526994,2.21720107 C45.4014459,1.11026221 48.6629132,0.477735211 52.5371992,0.319601089 L50.7581993,8.62160098 C47.2792486,9.25413747 44.80844,10.4796585 43.3456994,12.2982009 C41.8829587,14.1167433 40.8353359,16.7259172 40.2027994,20.1258008 L48.3861993,20.1258008 L44.5909993,38.3902006 Z M19.5663997,38.3902006 L0.827599899,38.3902006 L4.62279985,20.1258008 C5.17626928,17.5165878 5.96692803,15.0457792 6.99479982,12.7133009 C8.02267161,10.3808226 9.40632442,8.32510988 11.1457998,6.54610101 C12.8852751,4.76709214 15.0793531,3.32413992 17.7280997,2.21720107 C20.3768462,1.11026221 23.6383136,0.477735211 27.5125996,0.319601089 L25.7335996,8.62160098 C22.2546489,9.25413747 19.7838403,10.4796585 18.3210997,12.2982009 C16.858359,14.1167433 15.8107362,16.7259172 15.1781997,20.1258008 L23.3615996,20.1258008 L19.5663997,38.3902006 Z" id="“"></path>
            </g>
        </g>
    </g>
</svg>