<?xml version="1.0" encoding="UTF-8"?>
<svg width="23px" height="18px" viewBox="0 0 23 18" version="1.1" xmlns="http://www.w3.org/2000/svg" xmlns:xlink="http://www.w3.org/1999/xlink">
    <!-- Generator: Sketch 49 (51002) - http://www.bohemiancoding.com/sketch -->
    <desc>Created with Sketch.</desc>
    <defs></defs>
    <g id="redesign" stroke="none" stroke-width="1" fill="none" fill-rule="evenodd">
        <g id="path" transform="translate(-642.000000, -80.000000)" fill="#90918D" fill-rule="nonzero">
            <g id="Group-30" transform="translate(544.000000, 79.000000)">
                <g id="Group-23" transform="translate(93.000000, 1.000000)">
                    <path d="M15.2927399,0.0028857393 C14.8992389,-0.0142310763 14.496745,0.0443268878 14.104118,0.191170942 L6.98135669,2.82814624 C5.41091765,3.41282875 4.61032286,5.16507739 5.18720006,6.73702278 L7.81697994,13.8746604 C8.40186102,15.4493964 10.1475344,16.2537961 11.7151905,15.6773238 L13.5093471,15.0043578 L13.5093471,8.98456337 C13.4527473,9.01789571 13.3934496,9.04312156 13.3368497,9.06924685 C12.7025654,9.30347041 12.006274,8.98636456 11.7726896,8.35034014 C11.5391051,7.72241529 11.8553457,7.01974463 12.4896346,6.78549802 C12.8490042,6.65396982 13.2317413,6.69991509 13.5327147,6.89270211 C13.5991975,6.29812576 13.8031446,5.75668558 14.1112939,5.27832157 C13.8597237,5.14679337 13.6593968,4.9260868 13.5596703,4.64050288 C13.3242919,4.00718139 13.6405279,3.3126057 14.2766154,3.07566076 C14.9010099,2.84143721 15.5955073,3.16124368 15.8290917,3.78644945 C16.2962606,3.57744482 16.8227455,3.45942208 17.3743921,3.45942208 L18.5432343,3.45942208 L18.0023745,1.98738377 C17.5639552,0.80092939 16.4714719,0.0522950089 15.2918659,3.52045149e-05 L15.2927399,0.0028857393 Z M17.3743921,4.30820801 C15.6979247,4.30820801 14.3421184,5.66763174 14.3421184,7.34877845 L14.3421184,14.9594296 C14.3421184,16.640484 15.6978327,18 17.3743921,18 L24.9642763,18 C26.6407437,18 28,16.6405763 28,14.9594296 L28,7.34877845 C28,5.66772399 26.6397778,4.30820801 24.9642763,4.30820801 L17.3743921,4.30820801 Z M9.19778687,5.0613396 C9.67036066,5.08205994 10.1114939,5.38024894 10.2866823,5.85681408 C10.5202667,6.48473892 10.1959417,7.18740958 9.5697372,7.41353817 C8.93545287,7.64956061 8.24277244,7.33245937 8.00916501,6.69463145 C7.77558057,6.06670661 8.0882263,5.36403595 8.72252212,5.13790736 C8.87884844,5.07934917 9.04056127,5.05412562 9.19778687,5.06133268 L9.19778687,5.0613396 Z M18.4901051,7.26759817 C18.8009684,7.26759817 19.1127056,7.38831693 19.349004,7.62525265 C19.8242687,8.10181778 19.8242687,8.8729843 19.349004,9.34775056 C18.8764302,9.82431569 18.1064939,9.82431569 17.6312062,9.34775056 C17.1586324,8.87388374 17.1586324,8.10184084 17.6312062,7.62525265 C17.8683786,7.38833077 18.1792418,7.26759817 18.4901051,7.26759817 Z M21.1502445,9.93501607 C21.4611078,9.93501607 21.771051,10.0557348 22.0091434,10.2926706 C22.4817172,10.7692357 22.4817172,11.5385803 22.0091434,12.0151685 C21.5338787,12.4917336 20.7666334,12.4917336 20.2913456,12.0151685 C19.8187718,11.5413016 19.8187718,10.7692587 20.2913456,10.2926706 C20.528518,10.0557487 20.8384843,9.93501607 21.1502445,9.93501607 Z M11.1148076,10.2467299 C11.5873814,10.2692519 12.0249037,10.5674381 12.2001151,11.0386066 C12.4336995,11.6647095 12.1075783,12.3692021 11.48317,12.6034487 C10.8488857,12.8376723 10.1525943,12.5142611 9.91900987,11.8881398 C9.68542543,11.2602149 10.0061578,10.5539234 10.6395429,10.3196999 C10.7958692,10.2611417 10.957582,10.2395205 11.1148076,10.2467276 L11.1148076,10.2467299 Z M23.8113039,12.6034949 C24.1221672,12.6034949 24.4321104,12.7242136 24.6702028,12.9611493 C25.1427766,13.4377145 25.1427766,14.208881 24.6702028,14.6836472 C24.1949381,15.1602124 23.4258758,15.1602124 22.952405,14.6836472 C22.4771403,14.2097804 22.4771403,13.4377375 22.952405,12.9611493 C23.1886804,12.7242275 23.5004407,12.6034949 23.8113039,12.6034949 Z" id="Shape"></path>
                </g>
            </g>
        </g>
    </g>
</svg>