<?xml version="1.0" encoding="UTF-8"?>
<svg width="29px" height="27px" viewBox="0 0 29 27" version="1.1" xmlns="http://www.w3.org/2000/svg" xmlns:xlink="http://www.w3.org/1999/xlink">
    <!-- Generator: Sketch 49 (51002) - http://www.bohemiancoding.com/sketch -->
    <desc>Created with Sketch.</desc>
    <defs></defs>
    <g id="Re-Design" stroke="none" stroke-width="1" fill="none" fill-rule="evenodd">
        <g id="1.1_BetOnline_Desktop" transform="translate(-927.000000, -3547.000000)" fill="#EE3536" fill-rule="nonzero">
            <g id="Group-46" transform="translate(-126.000000, 3419.000000)">
                <g id="Group-38" transform="translate(1004.000000, 114.000000)">
                    <g id="LiveChat" transform="translate(49.000000, 14.000000)">
                        <path d="M22.9382765,6.93784545 C22.9382765,6.93784545 25.3187789,18.3406409 10.4253795,19.371014 C10.4253795,19.371014 14.5515836,23.7947491 21.0338747,22.0774607 L26.4174723,26.377551 L23.9637237,20.9234428 C30.5680918,17.2965295 29.1397904,9.36952594 22.9382765,6.93784545 Z" id="Shape"></path>
                        <path d="M10.7305722,0 C4.80983553,0 0,3.91541773 0,8.73756378 C0,11.7462532 1.86777877,14.3977466 4.7243816,15.977652 L2.00206352,21.7065264 L7.73968458,17.1179315 C8.69188552,17.3377445 9.69291728,17.4613892 10.7305722,17.4613892 C16.6635165,17.4613892 21.4611443,13.5459715 21.4611443,8.72382547 C21.4611443,3.90167942 16.6635165,0 10.7305722,0 Z M5.76203647,11.0318612 C4.78542012,11.0318612 3.97971163,10.1388712 3.97971163,9.02606824 C3.97971163,7.92700361 4.77321242,7.0202753 5.76203647,7.0202753 C6.75086053,7.0202753 7.54436131,7.91326531 7.54436131,9.02606824 C7.53215361,10.1388712 6.73865282,11.0318612 5.76203647,11.0318612 Z M10.6451182,11.0318612 C9.66850188,11.0318612 8.86279339,10.1388712 8.86279339,9.02606824 C8.86279339,7.92700361 9.65629417,7.0202753 10.6451182,7.0202753 C11.6339423,7.0202753 12.4274431,7.91326531 12.4274431,9.02606824 C12.4152354,10.1388712 11.6217346,11.0318612 10.6451182,11.0318612 Z M15.5892385,11.0318612 C14.6126222,11.0318612 13.8069137,10.1388712 13.8069137,9.02606824 C13.8069137,7.92700361 14.6004144,7.0202753 15.5892385,7.0202753 C16.5780626,7.0202753 17.3715633,7.91326531 17.3715633,9.02606824 C17.3593556,10.1388712 16.5658549,11.0318612 15.5892385,11.0318612 Z" id="Shape"></path>
                    </g>
                </g>
            </g>
        </g>
    </g>
</svg>