<?xml version="1.0" encoding="UTF-8"?>
<svg width="29px" height="20px" viewBox="0 0 29 20" version="1.1" xmlns="http://www.w3.org/2000/svg" xmlns:xlink="http://www.w3.org/1999/xlink">
    <!-- Generator: Sketch 49 (51002) - http://www.bohemiancoding.com/sketch -->
    <desc>Created with Sketch.</desc>
    <defs></defs>
    <g id="Re-Design" stroke="none" stroke-width="1" fill="none" fill-rule="evenodd">
        <g id="1.1_BetOnline_Desktop" transform="translate(-1053.000000, -3555.000000)" fill="#EE3536">
            <g id="Group-46" transform="translate(-126.000000, 3419.000000)">
                <g id="Group-39" transform="translate(1132.000000, 114.000000)">
                    <path d="M47.3476847,22 C47.156711,22 47,22.1746869 47,22.3922815 L47,24.3291716 L61.4981023,35.9505118 L75.9962045,24.3291716 L75.9962045,22.3922815 C75.9962045,22.1746869 75.8394767,22 75.6485198,22 L47.3476847,22 Z M47,26.2291872 L47,40.5474629 L54.7443468,32.4319427 L47,26.2291872 Z M75.9962045,26.2291872 L68.2518578,32.4319427 L75.9962045,40.5474629 L75.9962045,26.2291872 Z M55.8822792,33.3392898 L48.0010441,41.6140764 L74.9951611,41.6140764 L67.1139253,33.3392898 L61.8774131,37.5441555 C61.6482453,37.7249738 61.3479626,37.7249738 61.1187914,37.5441555 L55.8822792,33.3392898 Z" id="Page-1"></path>
                </g>
            </g>
        </g>
    </g>
</svg>