<?xml version="1.0" encoding="UTF-8"?>
<svg width="23px" height="16px" viewBox="0 0 23 16" version="1.1" xmlns="http://www.w3.org/2000/svg" xmlns:xlink="http://www.w3.org/1999/xlink">
    <!-- Generator: Sketch 49 (51002) - http://www.bohemiancoding.com/sketch -->
    <desc>Created with Sketch.</desc>
    <defs></defs>
    <g id="Re-Design" stroke="none" stroke-width="1" fill="none" fill-rule="evenodd">
        <g id="1.5_BetOnline_Desktop_VP_DataAnimation" transform="translate(-924.000000, -83.000000)" fill="#90918D" fill-rule="nonzero">
            <g id="Group-30" transform="translate(544.000000, 79.000000)">
                <g id="Group-25-Copy-3" transform="translate(368.000000, 4.000000)">
                    <g id="np_video-game_121195_000000" transform="translate(12.000000, 0.000000)">
                        <path d="M22.2245243,7.288412 C21.2250306,3.43204836 20.0738806,0.893502909 17.4207587,0.164775636 C17.0150603,0.0539792727 16.6346259,4.72727273e-06 16.2555931,4.72727273e-06 C15.4554087,4.72727273e-06 14.8110853,0.244324727 14.1863837,0.480113818 C13.6122103,0.697444727 12.9706899,0.936077455 12.0834649,1.01705927 L11.4194478,1.03694545 C11.4194478,1.04120691 9.41341651,0.742912727 8.71572588,0.478690909 C8.09522901,0.242894545 7.45230713,0 6.65492588,0 C6.27449151,0 5.89265557,0.0539781818 5.48835869,0.166192727 C2.83236182,0.896301818 1.68113994,3.43324727 0.684593069,7.28982909 C-0.472163181,11.7571018 -0.152067869,14.7527382 1.56197119,15.5087382 C1.84132776,15.6323164 2.13474307,15.6948182 2.43514463,15.6948182 C3.95828369,15.6948182 5.36067276,14.0740909 6.38395713,12.8894364 L6.66191213,12.5627309 C7.49576994,11.5755309 9.24491994,11.0087673 11.4574121,11.0087673 C13.8635356,11.0087673 15.3418965,11.4874582 16.2514746,12.5641491 L16.5308312,12.8908545 C17.5528218,14.0740909 18.9538093,15.6934 20.4782062,15.6934 C20.7800237,15.6934 21.0720015,15.6308982 21.3499781,15.50732 C23.0584109,14.7516473 23.3784703,11.7575018 22.2245531,7.28841091 L22.2245243,7.288412 Z M7.81178994,7.59096836 L6.66768369,7.59096836 L6.66768369,8.71169564 C6.66768369,9.12362291 6.30971385,9.47020473 5.88715713,9.47020473 C5.46320244,9.47020473 5.10522901,9.123612 5.10522901,8.71169564 L5.10522901,7.59096836 L4.03130869,7.59096836 C3.62561026,7.59096836 3.28308994,7.22875382 3.28308994,6.79976836 C3.28308994,6.37078655 3.62561744,6.00856836 4.03130869,6.00856836 L5.10522901,6.00856836 L5.10522901,4.88642291 C5.10522901,4.47591382 5.46319885,4.12791382 5.88715713,4.12791382 C6.30971026,4.12791382 6.66768369,4.47450291 6.66768369,4.88642291 L6.66768369,6.00856836 L7.81178994,6.00856836 C8.21748838,6.00856836 8.56000869,6.37078291 8.56000869,6.79976836 C8.56000869,7.22875018 8.21607604,7.59096836 7.81178994,7.59096836 Z M15.9354618,8.96595018 C15.3023509,8.96595018 14.7871509,8.44464109 14.7871509,7.80402291 C14.7871509,7.16340473 15.3037524,6.64209564 15.9354618,6.64209564 C16.5685728,6.64209564 17.0823712,7.16340473 17.0823712,7.80402291 C17.0809671,8.44464109 16.5671712,8.96595018 15.9354618,8.96595018 Z M18.0762587,6.79976836 C17.4431478,6.79976836 16.9293493,6.27845927 16.9293493,5.63784109 C16.9293493,4.99722291 17.4445493,4.477332 18.0762587,4.477332 C18.7093696,4.477332 19.2245696,4.99864109 19.2245696,5.63784109 C19.2245696,6.27845927 18.7093696,6.79976836 18.0762587,6.79976836 Z" id="Shape"></path>
                    </g>
                </g>
            </g>
        </g>
    </g>
</svg>