<?xml version="1.0" encoding="UTF-8"?>
<svg width="17px" height="17px" viewBox="0 0 17 17" version="1.1" xmlns="http://www.w3.org/2000/svg" xmlns:xlink="http://www.w3.org/1999/xlink">
    <!-- Generator: Sketch 49 (51002) - http://www.bohemiancoding.com/sketch -->
    <desc>Created with Sketch.</desc>
    <defs></defs>
    <g id="Re-Design" stroke="none" stroke-width="1" fill="none" fill-rule="evenodd">
        <g id="1.5_BetOnline_Desktop_VP_DataAnimation" transform="translate(-1028.000000, -82.000000)" fill="#90918D" fill-rule="nonzero">
            <g id="Group-30" transform="translate(544.000000, 79.000000)">
                <g id="Group-29" transform="translate(470.660000, 3.465000)">
                    <path d="M28.3249768,4.35563644 L30,6.03065969 L30,16 L26.1181188,16 L26.1181188,6.1895381 L28.3249768,4.35563644 Z M20.8293717,5.82874171 L20.0593794,5.82874171 L20.0587545,15.99984 L23.9406356,15.99984 L23.9406356,7.99928001 L23.403137,8.44553154 L20.8293717,5.82874171 Z M14,15.99984 L17.8818812,15.99984 L17.8818812,9.10678893 L14,9.10678893 L14,15.99984 Z M25.295567,0 L26.7599204,1.46435336 L23.6225118,4.07120729 L20.9662183,1.3699543 L14.000048,6.26366536 L15.3144029,8.13484665 L20.6949891,4.35552444 L23.4668013,7.17421626 L28.3835522,3.08865711 L29.999856,4.70432096 L29.999856,0 L25.295567,0 Z" id="Shape"></path>
                </g>
            </g>
        </g>
    </g>
</svg>