<?xml version="1.0" encoding="UTF-8"?>
<svg width="23px" height="19px" viewBox="0 0 23 19" version="1.1" xmlns="http://www.w3.org/2000/svg" xmlns:xlink="http://www.w3.org/1999/xlink">
    <!-- Generator: Sketch 49 (51002) - http://www.bohemiancoding.com/sketch -->
    <desc>Created with Sketch.</desc>
    <defs></defs>
    <g id="Re-Design" stroke="none" stroke-width="1" fill="none" fill-rule="evenodd">
        <g id="1.5_BetOnline_Desktop_VP_DataAnimation" transform="translate(-825.000000, -81.000000)" fill="#90918D" fill-rule="nonzero">
            <g id="Group-30" transform="translate(544.000000, 79.000000)">
                <g id="Group-25" transform="translate(274.000000, 2.000000)">
                    <g id="np_jockey_13119_000000" transform="translate(7.000000, 0.000000)">
                        <path d="M17.9858687,9.20971245 C18.2656661,9.14315961 18.5677269,9.09939941 18.868898,9.09939941 C20.0753846,9.09939941 21.1739305,9.69381457 21.8637295,10.708491 L22.8109028,9.20969845 C21.9055873,8.15217205 20.5912968,7.55684668 19.1915113,7.55684668 C18.6105428,7.55684668 18.0286846,7.66715971 17.4682229,7.86498847 C16.7571643,7.24779467 15.9605652,6.93965288 15.012411,6.89589268 C15.012411,6.89589268 14.6461834,6.89589268 14.2158118,6.91868439 C13.8709808,6.96244459 13.4833795,7.00620478 13.2472419,7.02899743 C13.0102148,7.02899743 12.922895,6.72085563 13.0966541,6.56677307 C13.7203929,6.0598783 14.6470821,5.28860193 14.6470821,4.34046436 C14.6470821,3.76794096 14.2594808,3.2610462 13.6999088,3.12794518 L10.5980947,2.40042901 L6.05281235,5.77171449 L4.13617953,4.78072693 L3.68441141,3.43510675 L3.23264328,4.73605653 C3.03839554,4.77981672 2.84504197,4.86824966 2.67307126,4.97765948 L0.196045239,7.18207643 C0.0864461325,7.31517977 1.36864869e-05,7.49112843 1.36864869e-05,7.66707943 C1.36864869e-05,8.06365183 0.323470994,8.3945956 0.711072304,8.3945956 C0.883934915,8.3945956 1.03452961,8.32804276 1.16284043,8.21773206 L2.7783021,7.66616688 C3.05809952,7.86491052 3.33787412,7.93145869 3.66133143,7.93145869 L3.83419404,7.93145869 C4.80365353,9.10021767 5.57885615,10.5096927 6.11801249,11.9429267 L3.33874321,13.8163998 C2.9511419,14.0807814 2.97251563,14.6761068 3.38151348,14.8967282 C3.40289862,14.8967282 4.39374324,15.3589526 4.39374324,15.3589526 L2.7355113,17.0555645 L1.83110824,17.7165185 L3.23093932,18.2899521 L5.68675129,15.7773 C6.20355303,15.865733 6.72035478,15.9541636 7.25944269,16.0644836 L8.35810262,16.637007 L8.07741558,15.3150757 L6.7853884,14.6541217 L8.07741558,13.3321904 L9.0041048,13.3321904 C10.8343075,13.3549821 12.3641373,12.8252956 13.8281352,11.701207 L14.8617387,11.701207 C15.5077409,12.4068314 16.3043401,12.9802884 17.1882134,13.354969 L18.3082699,17.4737953 L18.1362969,18.2888319 L19.6011844,18.2888319 L18.7832115,14.1681385 C20.0538421,14.983175 20.743527,15.7325596 21.518684,17.0544443 L22.014112,17.9807134 L22.8107112,16.900385 C21.1301931,14.8509609 21.0865332,14.7634405 20.0966808,12.294712 C18.8901942,11.744057 18.0722213,10.5762082 17.9857911,9.20955981 L17.9858687,9.20971245 Z M10.6195733,7.44744852 C10.5759111,7.49212127 10.5331409,7.53588146 10.4689855,7.53588146 L8.50866994,7.90967522 C8.42223749,7.93155532 8.50866994,7.93155532 8.42223749,7.93155532 C8.29303478,7.93155532 8.18521035,7.86500248 8.09966981,7.75560199 L6.8940728,6.43276044 L9.80153884,5.08896068 C10.383397,5.35334228 11.0285096,5.48553308 11.6754014,5.50742485 L10.6195733,7.44744852 Z" id="Shape"></path>
                        <path d="M9.21876138,2.92924916 C9.75695967,2.92924916 10.2309911,2.59830538 10.4466217,2.11421259 L7.86170058,1.60731782 C7.90536275,2.35579221 8.48632903,2.92924916 9.21876138,2.92924916 Z" id="Shape"></path>
                        <path d="M9.21876138,0.13046373 C8.6369032,0.13046373 8.1423648,0.483275932 7.94813074,1.0339309 L6.72027038,0.792327939 L6.67750011,1.05761975 L10.5544256,1.78422571 C10.7059031,0.968278934 10.0803942,0.13046373 9.21873857,0.13046373 L9.21876138,0.13046373 Z" id="Shape"></path>
                    </g>
                </g>
            </g>
        </g>
    </g>
</svg>