<?xml version="1.0" encoding="UTF-8"?>
<svg width="46px" height="45px" viewBox="0 0 46 45" version="1.1" xmlns="http://www.w3.org/2000/svg" xmlns:xlink="http://www.w3.org/1999/xlink">
    <!-- Generator: Sketch 49 (51002) - http://www.bohemiancoding.com/sketch -->
    <title>np_poker-chips_443929_000000</title>
    <desc>Created with Sketch.</desc>
    <defs></defs>
    <g id="Casino" stroke="none" stroke-width="1" fill="none" fill-rule="evenodd">
        <g id="1.1_BOL_Casino_Lander" transform="translate(-524.000000, -3044.000000)" fill="#FFFFFF" fill-rule="nonzero">
            <g id="np_poker-chips_443929_000000" transform="translate(524.000000, 3044.000000)">
                <path d="M45.58508,27.077602 C44.239212,25.2085867 42.877198,25.1798878 39.46662,26.9699786 L32.85596,31.0057898 C32.081504,31.4165434 28.789652,32.4461112 28.365578,32.4461112 L16.100138,32.4461112 C13.800138,32.4461112 13.800138,33.597652 13.800138,33.977902 C13.800138,34.3994189 13.4569366,34.7420296 13.032858,34.7420296 C12.6105918,34.7420296 12.265578,34.3994372 12.265578,33.977902 C12.265578,32.0604429 13.69949,30.9160653 16.100092,30.9160653 L28.088612,30.9160653 C28.088612,30.3833204 27.8783782,29.7968051 27.45073,29.1600551 C26.936818,28.3941367 26.253994,27.7699684 25.470568,27.2982031 C25.6897856,27.1439449 25.9054106,26.9896867 26.104862,26.8121112 L23.92345,24.6363612 C23.452686,25.022002 22.89742,25.3108102 22.277524,25.436351 L22.277524,26.3439735 C22.1661166,26.3385923 22.0547092,26.3242428 21.9415078,26.3242428 L20.7447718,26.3242428 L20.7447718,25.4363653 C20.2021098,25.3251556 19.7061838,25.0919775 19.2731398,24.7780795 L17.8140658,26.2363551 C17.2265078,26.1466719 16.6533018,25.9906183 16.1124338,25.7700081 L18.2381398,23.6480744 C18.0171236,23.2821602 17.8446236,22.8839469 17.7565658,22.4516714 L14.6569478,22.4516714 C14.7899154,23.6516561 15.2445058,24.7493806 15.9165658,25.6821204 C15.4331978,25.466878 14.9749918,25.2067734 14.5581398,24.8928755 C11.8071098,22.8229673 7.4782798,25.0596877 5.3654998,26.3977581 L5.3654998,24.7941969 L5.98e-05,24.7941969 L5.98e-05,44.6915438 L5.3654998,44.6915438 L5.3654998,42.3956255 L15.3327798,42.3956255 C16.8996318,42.3956255 18.4772938,42.2754479 20.0224798,42.0404744 L29.9593998,40.533801 C30.3223674,40.5284198 30.6889138,40.4853709 31.0159738,40.411828 C31.9305918,40.284478 32.8038558,39.8485933 33.5459738,39.1490729 L45.1683338,30.1160117 L45.1863028,30.1016622 C46.0901108,29.3536979 46.2644508,28.0245908 45.5852102,27.0775244" id="Shape"></path>
                <path d="M31.99346,9.15336735 C31.7724438,8.78745306 31.5981452,8.38744898 31.510092,7.95696429 L28.412268,7.95696429 C28.5542194,9.22688265 29.046562,10.3910051 29.785092,11.3577704 L31.99346,9.15336735 Z" id="Shape"></path>
                <path d="M32.96728,7.19081633 C32.96728,8.45715306 33.998692,9.48673469 35.26728,9.48673469 C36.534074,9.48673469 37.56728,8.45715306 37.56728,7.19081633 C37.56728,5.92447959 36.534074,4.89489796 35.26728,4.89489796 C33.998692,4.89489796 32.96728,5.92447959 32.96728,7.19081633" id="Shape"></path>
                <path d="M32.31316,4.78377551 L30.131748,2.60623469 C29.19919,3.64656122 28.57566,4.96671429 28.41213,6.4249898 L31.511748,6.4249898 C31.6375304,5.80793878 31.9250304,5.25370408 32.31316,4.78377551" id="Shape"></path>
                <path d="M42.1203646,7.95673469 L39.022536,7.95673469 C38.950661,8.31009031 38.8141008,8.63655612 38.6523786,8.94682653 L40.8841146,11.1763929 C41.5489526,10.2454898 41.9891726,9.14771939 42.1203646,7.95673469" id="Shape"></path>
                <path d="M36.03272,10.9395918 L36.03272,14.0337092 C37.495382,13.8704832 38.817882,13.2480918 39.860058,12.3171429 L37.678646,10.139602 C37.207882,10.5252429 36.652616,10.814051 36.03272,10.9395918" id="Shape"></path>
                <path d="M30.83978,12.4677551 C31.855,13.3161888 33.116412,13.8793776 34.5,14.0336633 L34.5,10.9395459 C33.957338,10.8301316 33.461412,10.5969536 33.028368,10.283051 L30.83978,12.4677551 Z" id="Shape"></path>
                <path d="M39.02272,6.42489796 L42.120544,6.42489796 C41.9678102,5.04376531 41.403588,3.78459184 40.551852,2.77296429 L38.365058,4.95766837 C38.6795094,5.38994847 38.911308,5.88319898 39.02272,6.42489796" id="Shape"></path>
                <path d="M34.5,3.44208673 L34.5,0.347969388 C33.306852,0.48070102 32.205382,0.920158163 31.274618,1.58381633 L33.506354,3.81159184 C33.8190114,3.65016122 34.14603,3.51383878 34.500046,3.44209133" id="Shape"></path>
                <path d="M39.43948,1.71835714 C38.47095,0.981137755 37.304804,0.489673469 36.034422,0.347969388 L36.034422,3.44208673 C36.465672,3.52997908 36.864584,3.70217296 37.231158,3.92280612 L39.43948,1.71835714 Z" id="Shape"></path>
                <path d="M19.21236,21.6872449 C19.21236,22.9517908 20.243772,23.9831633 21.51236,23.9831633 C22.780948,23.9831633 23.81236,22.9517908 23.81236,21.6872449 C23.81236,20.4209082 22.780948,19.3913265 21.51236,19.3913265 C20.243772,19.3913265 19.21236,20.4209082 19.21236,21.6872449" id="Shape"></path>
                <path d="M18.55824,19.2783673 L16.376828,17.1026173 C15.44427,18.1411531 14.82074,19.4613061 14.65721,20.9213724 L17.756828,20.9213724 C17.8826104,20.3025306 18.1719044,19.7500867 18.55824,19.2783673" id="Shape"></path>
                <path d="M24.8975,23.4436224 L27.129236,25.671398 C27.794074,24.7422857 28.234294,23.6427245 28.36728,22.4517398 L25.267662,22.4517398 C25.195787,22.8050954 25.0592222,23.1315612 24.8975046,23.4436684" id="Shape"></path>
                <path d="M25.2678,20.9213265 L28.367418,20.9213265 C28.2128856,19.5401939 27.648668,18.2810204 26.798726,17.267602 L24.610138,19.4523061 C24.9245894,19.8845862 25.158182,20.3796276 25.2678,20.9213265" id="Shape"></path>
                <path d="M20.74508,17.9366327 L20.74508,14.8443061 C19.551932,14.9770378 18.452256,15.4147041 17.519698,16.0783622 L19.753228,18.3061378 C20.0640868,18.1447071 20.39111,18.0083847 20.74508,17.9366372" id="Shape"></path>
                <path d="M25.68456,16.2146939 C24.71603,15.4756837 23.551678,14.9860102 22.279502,14.8443061 L22.279502,17.9366327 C22.710752,18.024525 23.111458,18.1985097 23.478032,18.4191429 L25.68456,16.2146939 Z" id="Shape"></path>
            </g>
        </g>
    </g>
</svg>