<?xml version="1.0" encoding="UTF-8"?>
<svg width="51px" height="44px" viewBox="0 0 51 44" version="1.1" xmlns="http://www.w3.org/2000/svg" xmlns:xlink="http://www.w3.org/1999/xlink">
    <!-- Generator: Sketch 49 (51002) - http://www.bohemiancoding.com/sketch -->
    <title>np_playing-cards_1294478_000000</title>
    <desc>Created with Sketch.</desc>
    <defs></defs>
    <g id="Poker" stroke="none" stroke-width="1" fill="none" fill-rule="evenodd">
        <g id="2.1_BOL_Poker_101" transform="translate(-227.000000, -1652.000000)" fill="#FFFFFF" fill-rule="nonzero">
            <g id="np_playing-cards_1294478_000000" transform="translate(227.000000, 1652.000000)">
                <path d="M27.9328734,0.578947368 L10.7040009,30.3649749 L32.8480505,43.1184211 L50.0769231,13.3323935 L27.9328734,0.578947368 Z M18.0504599,1.94765493 L11.2772074,27.142218 L24.8070977,3.74942554 L18.0504599,1.94765493 Z M29.8430082,3.61156406 L30.5893951,4.04448157 C30.1805188,4.31997503 30.0831679,4.51019365 29.8603428,4.89280823 C30.5331267,5.02399773 31.2362601,5.94448477 30.9030803,6.52173423 C30.3470977,7.48155909 28.8976327,7.41159285 28.0019905,7.66526245 C27.7748346,6.76661607 26.9765323,5.54220688 27.5325371,4.58019907 C27.8656947,4.00300558 29.0274155,4.16914461 29.4773965,4.68514843 C29.7002216,4.30033411 29.8062288,4.10353307 29.8430082,3.61158645 L29.8430082,3.61156406 Z M21.1075616,4.49487384 L22.4099312,7.14704211 L19.9609823,8.77596811 L18.6413334,6.14131939 L21.1075616,4.49487384 Z M8.70691596,4.6676009 L8.70691596,32.408935 L16.1746622,4.6676009 L8.70691596,4.6676009 Z M12.5966348,6.33151002 C13.3343267,7.13830472 14.777312,8.36926275 14.8205655,9.06892515 C14.8227288,9.7183238 14.4809171,10.2124534 13.7951073,10.2124534 C13.2823892,10.2124534 12.9925073,9.89541675 12.6139141,9.74455274 C12.1963816,9.89104526 11.9108361,10.2124534 11.398107,10.2124534 C10.7144681,10.2124534 10.3726487,9.7183182 10.3726487,9.06892515 C10.3834654,8.28401589 11.8524078,7.13830472 12.5965794,6.33151002 L12.5966348,6.33151002 Z M7.59495061,6.57420331 L0.230769231,8.54853865 L7.59495061,35.9445194 L7.59495061,6.57420331 Z M4.59001902,9.10390267 C4.47103574,9.39032767 4.53160733,9.6352095 4.65924687,10.1271449 C5.29957675,9.68766739 6.37914348,9.98721245 6.55221309,10.6300287 C6.74475512,11.3449717 6.4007758,11.9441066 5.63275653,11.8959698 C6.22983286,12.245801 6.26012697,13.2559456 5.31906578,13.5073763 C4.38017003,13.7588182 3.88256027,12.8798631 4.22437969,12.2764183 C3.57535478,12.6962157 2.99123791,12.348573 2.80088902,11.6358074 C2.60618709,10.9317791 3.42825946,10.179614 4.18976577,10.2321167 C4.06212623,9.75547307 3.98424767,9.51935661 3.73761932,9.33128735 L4.59001902,9.10390267 Z M46.1156503,12.984846 C46.3428063,13.8834924 47.1237739,15.1079016 46.5677968,16.0699094 C46.2346392,16.6471029 45.0729184,16.4809639 44.6229374,15.96496 C44.4001123,16.3497744 44.2941051,16.5465754 44.2573257,17.038522 L43.5109388,16.6056045 C43.919815,16.3301111 44.034473,16.1398924 44.2573257,15.7572779 C43.5845418,15.6260884 42.8641292,14.7056013 43.1972536,14.1283519 C43.7532362,13.168527 45.2199805,13.2384932 46.1156226,12.9848236 L46.1156503,12.984846 Z M32.8820552,17.5239198 C33.4142457,19.5594896 35.2271624,22.3472245 33.9767413,24.50767 C33.2260346,25.8042284 30.5996962,25.4369336 29.5656537,24.2649767 C29.0659173,25.12864 28.8041474,25.5462544 28.7327597,26.6569265 L27.0301977,25.686131 C27.9582939,25.0673495 28.2135508,24.6279056 28.7154804,23.7620594 C27.1816682,23.4559543 25.5331594,21.3679266 26.2838661,20.0713122 C27.5342872,17.9110906 30.8485842,18.0816403 32.8843259,17.5240933 L32.8820552,17.5239198 Z M16.8859922,26.8798054 C17.1131481,27.7806347 17.8941158,29.0028609 17.3381386,29.9648688 C17.004981,30.5420622 15.8605395,30.3759232 15.4105585,29.8599194 C15.1877334,30.2447337 15.0644192,30.4415348 15.0276399,30.9334814 L14.2812529,30.5005639 C14.6901292,30.2250704 14.8047871,30.0348518 15.0276399,29.6522372 C14.354856,29.5210477 13.6344433,28.6005607 13.9675677,28.0233112 C14.5235504,27.0634863 15.9902946,27.1334526 16.8859368,26.879783 L16.8859922,26.8798054 Z M10.1470767,31.3335763 L9.12161845,35.1467364 L23.4152303,38.9598964 L14.2444791,33.692726 L13.0459512,34.4907889 L12.020493,32.4115042 L10.1470767,31.3335763 Z M32.395245,35.8048668 L33.141632,36.2377843 C32.7327557,36.5132778 32.6180978,36.720988 32.395245,37.1036305 C33.0680289,37.23482 33.7884416,38.1553071 33.4553172,38.7325565 C32.8993345,39.6923814 31.4498696,39.6224152 30.5542274,39.8760848 C30.3270714,38.9774384 29.5287691,37.7530292 30.084774,36.7910214 C30.4179316,36.2138279 31.5796524,36.362481 32.0296334,36.8784792 C32.2524584,36.4936649 32.3584657,36.2968638 32.395245,35.8049172 L32.395245,35.8048668 Z M8.70658367,36.1853096 L8.70658367,39.0451937 L19.4042243,39.0451937 L8.84503936,36.2202928 C8.7974455,36.211547 8.75201375,36.2006149 8.70658367,36.1853096 Z M8.72389063,40.1536828 L9.15873012,41.7476257 L15.1167555,40.1536828 L8.72389063,40.1536828 Z" id="Shape"></path>
            </g>
        </g>
    </g>
</svg>