<?xml version="1.0" encoding="UTF-8"?>
<svg width="63px" height="51px" viewBox="0 0 63 51" version="1.1" xmlns="http://www.w3.org/2000/svg" xmlns:xlink="http://www.w3.org/1999/xlink">
    <!-- Generator: Sketch 49 (51002) - http://www.bohemiancoding.com/sketch -->
    <desc>Created with Sketch.</desc>
    <defs></defs>
    <g id="Re-Design" stroke="none" stroke-width="1" fill="none" fill-rule="evenodd">
        <g id="2.3_Mobile_Mockup_NavSearch" transform="translate(-380.000000, -793.000000)" fill="#FFFFFF" fill-rule="nonzero">
            <g id="Group" transform="translate(191.000000, 441.000000)">
                <g id="Group-10" transform="translate(185.000000, 352.000000)">
                    <g id="np_jockey_13119_000000" transform="translate(4.375000, 0.000000)">
                        <path d="M48.6483717,25.3431823 C49.4051707,25.160043 50.222188,25.0396241 51.0367989,25.0396241 C54.300117,25.0396241 57.2714757,26.675329 59.1372513,29.4675041 L61.699176,25.3431438 C59.2504689,22.4330546 55.6955617,20.794845 51.9094069,20.794845 C50.3379969,20.794845 48.7641806,21.0984032 47.2482379,21.6427861 C45.3249589,19.9443992 43.1703089,19.0964581 40.6057312,18.9760393 C40.6057312,18.9760393 39.6151549,18.9760393 38.4510812,19.0387573 C37.5183785,19.1591761 36.4699902,19.2795949 35.8312829,19.3423154 C35.1901694,19.3423154 34.9539859,18.4943743 35.4239713,18.0703717 C37.1110668,16.6755044 39.6175858,14.5531148 39.6175858,11.9440406 C39.6175858,10.3685772 38.5691976,8.97370995 37.0556612,8.60744409 L28.6658408,6.60547334 L16.3717121,15.8825385 L11.187583,13.1555502 L9.96563572,9.45268781 L8.74368843,13.0326267 C8.21828503,13.1530455 7.69530022,13.3963942 7.230152,13.6974669 L0.530265277,19.7635565 C0.233820432,20.1298288 3.70193575e-05,20.6140023 3.70193575e-05,21.0981822 C3.70193575e-05,22.1894657 0.874927835,23.100153 1.92331604,23.100153 C2.3908767,23.100153 2.79820686,22.9170137 3.14526333,22.6134619 L7.5147815,21.0956711 C8.27158056,21.6425716 9.02831793,21.8256981 9.90320875,21.8256981 L10.3707694,21.8256981 C12.9929739,25.0418758 15.0897503,28.9204533 16.5480662,32.8644102 L9.03066866,38.0198124 C7.98228045,38.7473347 8.04009235,40.3855443 9.14635415,40.9926478 C9.2041969,40.9926478 11.8842441,42.2645915 11.8842441,42.2645915 L7.39904048,46.9333091 L4.95280133,48.7521148 L8.73907952,50.3300829 L15.3815862,43.4157954 C16.7794372,43.6591441 18.1772881,43.9024865 19.6354189,44.2060639 L22.6070861,45.7815273 L21.8478808,42.1438516 L18.3531918,40.3250459 L21.8478808,36.6873703 L24.3543998,36.6873703 C29.3047517,36.7500882 33.4426521,35.292503 37.4024894,32.1992488 L40.1981912,32.1992488 C41.9455049,34.140978 44.1001549,35.7190103 46.490865,36.7500523 L49.5204058,48.0841918 L49.0552514,50.3270002 L53.017495,50.3270002 L50.8050331,38.9877228 C54.2418485,41.2305311 56.1073157,43.2926792 58.2039687,46.9302264 L59.5440077,49.4791233 L61.6986577,46.506288 C57.1531742,40.8667058 57.0350824,40.6258682 54.3577191,33.832449 C51.0944011,32.3171629 48.8819392,29.1034899 48.6481619,25.3427623 L48.6483717,25.3431823 Z M28.7239365,20.4938044 C28.6058386,20.6167344 28.4901531,20.7371532 28.3166248,20.7371532 L23.0143423,21.7657546 C22.7805588,21.825964 23.0143423,21.825964 22.7805588,21.825964 C22.4310899,21.825964 22.1394453,21.6428246 21.9080743,21.3417776 L18.6471625,17.7015973 L26.511308,14.0037443 C28.0851243,14.7312666 29.8300317,15.0950277 31.5797516,15.1552693 L28.7239365,20.4938044 Z" id="Shape"></path>
                        <path d="M24.9350052,8.06067462 C26.3907298,8.06067462 27.6728952,7.14998729 28.2561352,5.81786624 L21.2644125,4.42299897 C21.3825105,6.4826423 22.9539143,8.06067462 24.9350052,8.06067462 Z" id="Shape"></path>
                        <path d="M24.9350052,0.359008614 C23.361189,0.359008614 22.0235562,1.32987323 21.4981898,2.84515932 L18.1770598,2.18031904 L18.0613743,2.91034604 L28.5477243,4.90981208 C28.9574422,2.66449899 27.2655589,0.359008614 24.9349435,0.359008614 L24.9350052,0.359008614 Z" id="Shape"></path>
                    </g>
                </g>
            </g>
        </g>
    </g>
</svg>