<?xml version="1.0" encoding="UTF-8"?>
<svg width="15px" height="15px" viewBox="0 0 15 15" version="1.1" xmlns="http://www.w3.org/2000/svg" xmlns:xlink="http://www.w3.org/1999/xlink">
    <!-- Generator: sketchtool 50.2 (55047) - http://www.bohemiancoding.com/sketch -->
    <title>D8E7312C-11E4-4858-8E84-CF6F2C48CC21</title>
    <desc>Created with sketchtool.</desc>
    <defs></defs>
    <g id="Blog" stroke="none" stroke-width="1" fill="none" fill-rule="evenodd">
        <g id="1.1.2_Blog_Lander_HoverState&amp;ArticleTrim" transform="translate(-320.000000, -916.000000)" fill="#EE3536">
            <g id="Group" transform="translate(320.000000, 916.000000)">
                <path d="M3.82323529,0.147352941 L3.82323529,7.04073529 L0.147352941,7.04073529 L0.147352941,12.0961765 C0.147352941,13.6127206 1.38816176,14.8535294 2.90470588,14.8535294 L12.0961765,14.8535294 C13.6127206,14.8535294 14.8535294,13.6127206 14.8535294,12.0961765 L14.8526669,0.147352941 L3.82323529,0.147352941 Z M1.98529412,12.0952941 L1.98529412,8.87867647 L3.82323529,8.87867647 L3.82323529,12.0952941 C3.82323529,12.6011029 3.40963235,13.0147059 2.90382353,13.0147059 C2.398875,13.0147059 1.98527206,12.6011029 1.98527206,12.0952941 L1.98529412,12.0952941 Z M12.0952941,13.0147059 L5.47764706,13.0147059 C5.56984632,12.7389706 5.66118309,12.4175735 5.66118309,12.0952941 L5.66204559,1.98529412 L13.0146926,1.98529412 L13.0146926,12.0952941 C13.0146926,12.6011029 12.6010897,13.0147059 12.0952809,13.0147059 L12.0952941,13.0147059 Z" id="Fill-1"></path>
                <polygon id="Fill-2" points="6.58058824 5.66205882 9.33794118 5.66205882 9.33794118 2.90470588 6.58058824 2.90470588"></polygon>
                <polygon id="Fill-3" points="10.2573529 3.82411765 12.0952941 3.82411765 12.0952941 2.90470588 10.2573529 2.90470588"></polygon>
                <polygon id="Fill-4" points="10.2573529 5.66205882 12.0952941 5.66205882 12.0952941 4.74264706 10.2573529 4.74264706"></polygon>
                <polygon id="Fill-5" points="6.58058824 7.5 12.0952941 7.5 12.0952941 6.58058824 6.58058824 6.58058824"></polygon>
                <polygon id="Fill-6" points="6.58058824 9.33882353 12.0952941 9.33882353 12.0952941 8.41941176 6.58058824 8.41941176"></polygon>
                <polygon id="Fill-7" points="6.58058824 11.1767647 12.0952941 11.1767647 12.0952941 10.2573529 6.58058824 10.2573529"></polygon>
            </g>
        </g>
    </g>
</svg>