<?xml version="1.0" encoding="UTF-8"?>
<svg width="69px" height="55px" viewBox="0 0 69 55" version="1.1" xmlns="http://www.w3.org/2000/svg" xmlns:xlink="http://www.w3.org/1999/xlink">
    <!-- Generator: Sketch 49 (51002) - http://www.bohemiancoding.com/sketch -->
    <desc>Created with Sketch.</desc>
    <defs></defs>
    <g id="Re-Design" stroke="none" stroke-width="1" fill="none" fill-rule="evenodd">
        <g id="2.3_Mobile_Mockup_NavSearch" transform="translate(-376.000000, -631.000000)" fill="#FFFFFF" fill-rule="nonzero">
            <g id="Group" transform="translate(191.000000, 441.000000)">
                <g id="Group-14" transform="translate(185.000000, 190.000000)">
                    <path d="M30.5573631,0.00877554847 C29.3891268,-0.0432767784 28.1941922,0.1347983 27.0285505,0.581351845 L5.88230505,8.60040768 C1.21994337,10.3784303 -1.15688397,15.7070277 0.555764584,20.4873219 L8.36312584,42.1929157 C10.0995365,46.9816961 15.2821386,49.4278798 19.9362381,47.6748247 L25.2627786,45.6283314 L25.2627786,27.3221047 C25.0947435,27.4234686 24.9186989,27.5001805 24.7506638,27.5796277 C22.8675834,28.2919027 20.8004148,27.3275822 20.1069431,25.3934285 C19.4134713,23.4839058 20.3523348,21.3470806 22.2354289,20.6347354 C23.3023348,20.2347574 24.4386151,20.3744772 25.3321531,20.9607436 C25.529529,19.1526337 26.1350126,17.5061113 27.0498545,16.0514038 C26.3029862,15.6514259 25.7082502,14.980256 25.4121796,14.1117938 C24.7133818,12.1858598 25.6522317,10.0736515 27.5406654,9.35310064 C29.3943845,8.64082558 31.456227,9.61335877 32.1496988,11.5146128 C33.5366423,10.8790286 35.0996851,10.5201208 36.7374283,10.5201208 L40.2075184,10.5201208 L38.6017994,6.04364457 C37.3002083,2.43563051 34.0568144,0.159029399 30.5547684,0.000107057116 L30.5573631,0.00877554847 Z M36.7374283,13.1012834 C31.7602867,13.1012834 27.7351324,17.2352981 27.7351324,22.3476741 L27.7351324,45.4917045 C27.7351324,50.6038 31.7600136,54.7380952 36.7374283,54.7380952 L59.2704807,54.7380952 C64.2476223,54.7380952 68.2830189,50.6040805 68.2830189,45.4917045 L68.2830189,22.3476741 C68.2830189,17.2355786 64.2447545,13.1012834 59.2704807,13.1012834 L36.7374283,13.1012834 Z M12.4625026,15.3915605 C13.8654924,15.4545712 15.1751407,16.3613655 15.6952445,17.8106026 C16.3887163,19.7201254 15.4258517,21.8569506 13.5667587,22.5446088 C11.6836784,23.2623543 9.62723008,22.2980477 8.93369004,20.3584097 C8.24021828,18.4488869 9.16840934,16.3120617 11.0515238,15.6244035 C11.5156296,15.4463277 11.995727,15.3696228 12.4625026,15.3915395 L12.4625026,15.3915605 Z M40.049787,22.1008045 C40.9726862,22.1008045 41.8981801,22.4679109 42.5997091,23.1884336 C44.0106879,24.6376707 44.0106879,26.9827922 42.5997091,28.4265589 C41.1967194,29.875796 38.9109119,29.875796 37.4998648,28.4265589 C36.0968751,26.9855274 36.0968751,24.6377409 37.4998648,23.1884336 C38.2039886,22.467953 39.1268878,22.1008045 40.049787,22.1008045 Z M47.9472805,30.2124364 C48.8701797,30.2124364 49.7903476,30.5795428 50.4972026,31.3000656 C51.9001924,32.7493027 51.9001924,35.0888836 50.4972026,36.5381909 C49.0862238,37.987428 46.8084054,37.987428 45.3973583,36.5381909 C43.9943685,35.0971594 43.9943685,32.7493728 45.3973583,31.3000656 C46.1014821,30.5795849 47.0217183,30.2124364 47.9472805,30.2124364 Z M18.1538054,31.1603598 C19.5567952,31.2288493 20.8557232,32.1356352 21.3758953,33.5684611 C22.0693671,35.4724433 21.1011696,37.6148091 19.2474095,38.3271543 C17.3643292,39.0394293 15.2971606,38.0559343 14.6036889,36.151896 C13.9102171,34.2423732 14.8624161,32.094537 16.7428266,31.382262 C17.2069324,31.2041862 17.6870298,31.1384361 18.1538054,31.1603528 L18.1538054,31.1603598 Z M55.8475052,38.3272945 C56.7704044,38.3272945 57.6905723,38.6944009 58.3974274,39.4149237 C59.8004171,40.8641608 59.8004171,43.2092823 58.3974274,44.653049 C56.9864486,46.1022861 54.7032358,46.1022861 53.2975831,44.653049 C51.8866043,43.2120175 51.8866043,40.8642309 53.2975831,39.4149237 C53.9990438,38.694443 54.924606,38.3272945 55.8475052,38.3272945 Z" id="Shape"></path>
                </g>
            </g>
        </g>
    </g>
</svg>