<?xml version="1.0" encoding="UTF-8"?>
<svg width="47px" height="43px" viewBox="0 0 47 43" version="1.1" xmlns="http://www.w3.org/2000/svg" xmlns:xlink="http://www.w3.org/1999/xlink">
    <!-- Generator: Sketch 49 (51002) - http://www.bohemiancoding.com/sketch -->
    <title>np_rules_1608602_000000</title>
    <desc>Created with Sketch.</desc>
    <defs></defs>
    <g id="Casino" stroke="none" stroke-width="1" fill="none" fill-rule="evenodd">
        <g id="1.1_BOL_Casino_Lander" transform="translate(-1156.000000, -3049.000000)" fill="#FFFFFF" fill-rule="nonzero">
            <g id="np_rules_1608602_000000" transform="translate(1156.000000, 3049.000000)">
                <path d="M26.0022391,37.2748571 L26.0022391,33.9834631 L0.45876087,33.9834631 L0.45876087,37.2748571 C0.45876087,40.2523 2.85744674,42.656 5.82902174,42.656 L28.9218587,42.656 C27.1497543,41.5062107 26.0023413,39.5205833 26.0023413,37.2748571 L26.0022391,37.2748571 Z" id="Shape"></path>
                <path d="M42.683663,0.34394881 C40.5463891,0.34394881 38.8261891,2.06763452 38.8261891,4.20923929 L38.8261891,10.6858583 L46.5413413,10.6858583 L46.5413413,4.20923929 C46.5413413,2.06763452 44.8211413,0.34394881 42.6838674,0.34394881 L42.683663,0.34394881 Z" id="Shape"></path>
                <path d="M39.660337,0.34394881 L11.2493478,0.34394881 C9.21583152,0.34394881 7.59944022,1.96366667 7.59944022,3.94729762 L7.39189946,32.938 L26.5234538,32.938 C26.8367599,32.938 27.0442853,33.1459613 27.0442853,33.4598869 L27.0442853,37.2731679 C27.0442853,40.2506107 29.4429712,42.6543107 32.4145462,42.6543107 C35.3859679,42.6543107 37.7848071,40.2507643 37.7848071,37.2731679 L37.7848071,4.20923929 C37.7848071,2.64352738 38.5132049,1.23179643 39.660669,0.34394881 L39.660337,0.34394881 Z M13.5441739,8.02252024 L21.624087,8.02252024 C21.937393,8.02252024 22.1449185,8.43018093 22.1449185,9.04556043 C22.1449185,9.66097004 21.9373777,10.0686006 21.624087,10.0686006 L13.5441739,10.0725202 C13.2308678,10.0725202 13.0233424,9.66485949 13.0233424,9.04948 C13.0213464,8.43407039 13.2308832,8.02252626 13.5441739,8.02252626 L13.5441739,8.02252024 Z M31.0077391,28.8688773 L13.5441739,28.8688773 C13.2308678,28.8688773 13.0233424,28.4624281 13.0233424,27.8488774 C13.0233424,27.2352966 13.2308832,26.8288774 13.5441739,26.8288774 L31.0077391,26.8288774 C31.3210452,26.8288774 31.5285707,27.2353266 31.5285707,27.8488774 C31.5285707,28.4585462 31.3190324,28.8688773 31.0077391,28.8688773 Z M31.0077391,22.6000916 L13.5441739,22.6000916 C13.2308678,22.6000916 13.0233424,22.1936424 13.0233424,21.5800916 C13.0233424,20.9665109 13.2308832,20.5600917 13.5441739,20.5600917 L31.0077391,20.5600917 C31.3210452,20.5600917 31.5285707,20.9665409 31.5285707,21.5800916 C31.5285707,22.1936724 31.3190324,22.6000916 31.0077391,22.6000916 Z M31.0077391,16.3333535 L13.5441739,16.3333535 C13.2308678,16.3333535 13.0233424,15.9269043 13.0233424,15.3133536 C13.0233424,14.6997728 13.2308832,14.2933536 13.5441739,14.2933536 L31.0077391,14.2933536 C31.3210452,14.2933536 31.5285707,14.6998028 31.5285707,15.3133536 C31.5285707,15.9230324 31.3190324,16.3333535 31.0077391,16.3333535 Z" id="Shape"></path>
            </g>
        </g>
    </g>
</svg>