<?xml version="1.0" encoding="UTF-8"?>
<svg width="66px" height="53px" viewBox="0 0 66 53" version="1.1" xmlns="http://www.w3.org/2000/svg" xmlns:xlink="http://www.w3.org/1999/xlink">
    <!-- Generator: Sketch 49 (51002) - http://www.bohemiancoding.com/sketch -->
    <desc>Created with Sketch.</desc>
    <defs></defs>
    <g id="Re-Design" stroke="none" stroke-width="1" fill="none" fill-rule="evenodd">
        <g id="2.3_Mobile_Mockup_NavSearch" transform="translate(-226.000000, -789.000000)" fill="#FFFFFF" fill-rule="nonzero">
            <g id="Group" transform="translate(191.000000, 441.000000)">
                <g id="Group-11" transform="translate(35.000000, 348.000000)">
                    <g id="np_cards_62731_000000">
                        <path d="M20.5970523,50.507705 C19.149033,51.1106122 17.4794051,50.4260912 16.8754166,48.980706 L2.36078789,14.2835342 C1.7567792,12.8381557 2.44255084,11.1715727 3.89057682,10.5686857 L24.0656137,2.15927213 C25.5136329,1.55636496 27.1832609,2.24088597 27.7872493,3.6862712 L31.7093591,13.0642131 L32.4663535,10.1997418 L29.4516105,2.99408015 C28.4625415,0.632475251 25.7352416,-0.486488317 23.369322,0.498215799 L3.19698608,8.90493342 C0.831066481,9.89219871 -0.289941458,12.6145248 0.696561733,14.9761297 L15.2111905,49.6759974 C16.2002595,52.0376023 18.9275594,53.1565658 21.293479,52.1692331 L29.0058947,48.9546224 C28.2383669,48.7071388 27.5393743,48.3359168 26.9301192,47.8698977 L20.5970523,50.507705 Z" id="Shape"></path>
                        <path d="M26.7740072,30.582443 L26.8610504,30.2744079 C26.8610504,30.2744079 25.373463,30.3533932 24.2814898,29.3502958 C23.819913,28.9237861 23.4084243,28.2866671 23.081413,27.6020921 C23.7513641,28.3866876 24.9804823,28.6552066 25.9642846,28.24186 C27.1485611,27.7495281 27.7077146,26.3910072 27.2118972,25.2088904 C26.7186658,24.0267737 25.3576628,23.4686399 24.1733863,23.9635531 C23.2238854,24.3584727 22.5670944,25.3562927 22.5934957,26.343558 C22.4959055,26.0144606 22.4246895,25.7011549 22.3851281,25.4141888 C23.2977617,24.7823201 23.6301073,23.4422194 23.1895908,22.3891049 C22.6963594,21.2069882 21.3353564,20.6488544 20.1510799,21.1437676 C18.9668034,21.6360995 18.4076499,22.9946205 18.9034673,24.1767372 C19.3465835,25.2324802 20.5440606,25.9433409 21.6413007,25.7274608 C21.8180205,25.959146 21.9947402,26.2382196 22.1582662,26.5435992 C21.4751414,25.8195957 20.2934983,25.5799911 19.3386631,25.9775527 C18.1543866,26.4698846 17.5952331,27.8284056 18.0884172,29.0105223 C18.5816485,30.192639 19.9426516,30.7507728 21.126928,30.2584882 C22.1054636,29.8504055 22.7754215,28.7998994 22.6989185,27.7810238 C22.941574,28.4707885 23.097193,29.2001166 23.0919195,29.8451281 C23.0813691,31.327374 21.9393111,32.3278496 21.9393111,32.3278496 L21.9419485,32.3278496 L22.1687835,32.5042471 C24.6903423,30.2295199 26.774018,30.582288 26.774018,30.582288" id="Shape"></path>
                        <path d="M8.11349921,14.848745 C8.75179581,14.5828344 9.05509997,13.850898 8.78608372,13.2137722 C8.51968734,12.5766396 7.78641365,12.2738886 7.1481238,12.5424142 C6.63643182,12.7556724 6.283026,13.2927709 6.29619288,13.8271801 C6.24344095,13.6507826 6.20387617,13.4796558 6.1827754,13.3269491 C6.67600674,12.9873172 6.8553599,12.2633204 6.61797793,11.6972335 C6.35158156,11.0601009 5.61830786,10.7599785 4.98001801,11.0258755 C4.34172816,11.2917726 4.04105063,12.0237225 4.3074335,12.6608483 C4.54481548,13.2295301 5.19366584,13.6139422 5.78185402,13.4980827 C5.87680411,13.6244565 5.97176095,13.7745278 6.06143753,13.9377555 C5.69481081,13.5454712 5.05650071,13.4190975 4.5421821,13.6323489 C3.9038855,13.8982595 3.60058135,14.6301959 3.86959759,15.2673217 C4.13599397,15.9044543 4.86926767,16.2072053 5.50755751,15.9386796 C6.03507676,15.7175222 6.39642322,15.1540841 6.35685506,14.603836 C6.48873318,14.975058 6.57313626,15.3673356 6.57050289,15.7148465 C6.56522736,16.5152134 5.9480268,17.0523187 5.9480268,17.0523187 L5.95066423,17.0523187 L6.07199534,17.1470956 C7.42771136,15.9228543 8.55135268,16.1123812 8.55135268,16.1123812 L8.59882975,15.9465182 C8.59882975,15.9465182 7.7970005,15.9886428 7.20881232,15.4489225 C6.96087658,15.2198726 6.73668175,14.8749768 6.55996195,14.5064103 C6.92131517,14.9250208 7.58333241,15.0698282 8.1135188,14.8486708" id="Shape"></path>
                        <path d="M62.8458577,7.95649014 L41.7079505,2.3907888 C39.7139446,1.8668669 37.6539693,3.06478204 37.1291172,5.05252289 L34.4915547,15.0357107 L33.7345604,17.9001819 L27.5204005,41.4110879 C26.9955214,43.3988288 28.1956252,45.4576759 30.189631,45.9815709 L30.9676924,46.1869299 L33.8373971,46.9425437 L51.3270656,51.5472655 C53.3184381,52.0711874 55.3810468,50.8759075 55.9058989,48.8855314 L65.5143454,12.5242703 C66.0392245,10.5365295 64.8364874,8.48031094 62.8451149,7.956416 M38.6423631,7.27716562 C38.7030273,6.76903538 38.9113996,6.33728205 39.3202211,6.00817115 C39.8319131,5.5974599 40.3990275,5.27095735 40.9924825,4.99980987 C41.3380084,4.84183934 41.6887741,4.71020172 42.0396208,4.56803633 C42.0791843,4.55223927 42.1081966,4.54960666 42.1398512,4.586466 C42.7069318,5.23939695 43.2160242,5.93445247 43.5905038,6.71904799 C43.6669932,6.87701853 43.7329357,7.04288152 43.8041516,7.20348063 C43.9808714,7.61946252 43.9597706,8.03808645 43.8331653,8.45933222 C43.7830508,8.62256665 43.7092008,8.77790187 43.5957833,8.9042756 C43.1948687,9.35974675 42.6673495,9.64674655 41.9261554,9.39660744 C41.5463415,9.26759839 41.2720315,9.00168784 41.1005582,8.64099362 C41.1005582,8.90164029 41.1427598,9.14385323 41.2113356,9.36236858 C41.467185,10.178507 42.0685333,10.6893265 42.0685333,10.6893265 L41.9208279,10.7999018 C41.9208279,10.7999018 41.089964,9.91002852 39.1434264,10.0680125 L39.1012248,9.90741343 L39.0985874,9.90741343 C39.0985874,9.90741343 39.8740154,9.75997741 40.496505,9.17552418 C40.6600376,9.02282427 40.8156567,8.83852756 40.9396211,8.62000547 C40.8156567,8.68582563 40.6969657,8.75164309 40.570361,8.79640298 C39.5891921,9.149198 38.5236201,8.31197034 38.6422571,7.27728963 M46.3074072,30.4747888 C46.7848112,32.0096736 47.913699,32.965396 47.913699,32.965396 L47.6341155,33.1733836 C47.6341155,33.1733836 46.0752919,31.5015433 42.4169249,31.799044 L42.3404354,31.498908 L42.337798,31.4962754 C42.337798,31.4962754 43.7937173,31.2198303 44.9674603,30.1219358 C45.2760582,29.8323276 45.5635554,29.4874318 45.8009576,29.0740785 C45.5688492,29.1978169 45.3420142,29.3189268 45.1072994,29.4058112 C43.2583317,30.0692767 41.2564257,28.494842 41.4832337,26.5518543 C41.594011,25.5987605 41.9922923,24.7878792 42.75718,24.1691534 C43.7199153,23.3951396 44.7802205,22.7816709 45.8958942,22.2735474 C46.5421044,21.9786754 47.2067753,21.7311918 47.8635663,21.4626662 C47.9374224,21.4310727 47.9901709,21.4258068 48.0508331,21.4968922 C49.1164051,22.7263907 50.0712403,24.029624 50.7754996,25.5039842 C50.9179314,25.8041201 51.0418959,26.1121553 51.1764142,26.4149535 C51.5113864,27.1942244 51.471825,27.9814485 51.2291661,28.7739298 C51.134216,29.0819649 51.0023311,29.3715731 50.7913234,29.6111642 C50.0395959,30.46417 49.0426267,31.0039038 47.6552426,30.5326477 C46.9378165,30.290428 46.4287646,29.7928054 46.1016858,29.113555 C46.0964103,29.6085221 46.1781752,30.0613243 46.30742,30.4746843 M54.3864827,46.6613058 C54.3258179,47.1694361 54.1174462,47.6011894 53.7086247,47.9303003 C53.1969328,48.3410183 52.6324517,48.6675141 52.0363634,48.9386616 C51.6934776,49.0939968 51.3400718,49.2282697 50.989225,49.3704351 C50.9470235,49.3862322 50.9206492,49.3888648 50.8889947,49.3520055 C50.321914,48.6964392 49.8128217,48.0066476 49.4383421,47.2194235 C49.364486,47.0614529 49.2932768,46.8955899 49.2246943,46.7349908 C49.0453411,46.3190089 49.0690752,45.900385 49.1956805,45.4791392 C49.2431576,45.3159048 49.3170116,45.1605696 49.4304291,45.0341959 C49.8339839,44.5787247 50.3614964,44.2917249 51.1000571,44.541864 C51.4798709,44.6708731 51.7541809,44.9341483 51.9256542,45.2948493 C51.9282917,45.0342026 51.8834527,44.7919896 51.8148769,44.5734743 C51.5590275,43.7573359 50.9603126,43.2465164 50.9603126,43.2465164 L51.108018,43.1359411 C51.108018,43.1359411 51.9388819,44.0258144 53.8827861,43.8678303 L53.9249876,44.0257941 L53.9276257,44.0284274 C53.9276257,44.0284274 53.1548311,44.1758635 52.5297082,44.7603167 C52.3661755,44.9130166 52.2105565,45.0973133 52.0839519,45.3158354 C52.2105565,45.2500159 52.3266141,45.1841978 52.4558521,45.1394379 C53.4396544,44.7892782 54.5079273,45.6291344 54.3865894,46.6611798" id="Shape"></path>
                    </g>
                </g>
            </g>
        </g>
    </g>
</svg>