<?xml version="1.0" encoding="UTF-8"?>
<svg width="68px" height="46px" viewBox="0 0 68 46" version="1.1" xmlns="http://www.w3.org/2000/svg" xmlns:xlink="http://www.w3.org/1999/xlink">
    <!-- Generator: Sketch 49 (51002) - http://www.bohemiancoding.com/sketch -->
    <desc>Created with Sketch.</desc>
    <defs></defs>
    <g id="Re-Design" stroke="none" stroke-width="1" fill="none" fill-rule="evenodd">
        <g id="2.3_Mobile_Mockup_NavSearch" transform="translate(-539.000000, -641.000000)" fill="#FFFFFF" fill-rule="nonzero">
            <g id="Group" transform="translate(191.000000, 441.000000)">
                <g id="Group-13" transform="translate(348.000000, 200.000000)">
                    <g id="np_video-game_121195_000000">
                        <path d="M65.3343377,21.1177066 C62.3960853,9.94414013 59.0120028,2.5888674 51.2125126,0.477426844 C50.0198644,0.156401483 48.901486,1.36969697e-05 47.7872278,1.36969697e-05 C45.4348933,1.36969697e-05 43.5407495,0.707915235 41.7042889,1.39109901 C40.0163679,2.02080139 38.1304646,2.71222442 35.5222532,2.94686405 L33.5702148,3.00448298 C33.5702148,3.01683028 27.6730032,2.152542 25.6219737,1.38697622 C23.7978738,0.703771375 21.9078503,0 19.5637562,0 C18.4453778,0 17.3228791,0.156398322 16.1343512,0.481532774 C8.32640919,2.59697706 4.94211544,9.94761389 2.01252608,21.1218125 C-1.3880373,34.0654489 -0.447040096,42.7451132 4.59179022,44.9355747 C5.41302607,45.2936346 6.27559099,45.4747296 7.15869368,45.4747296 C11.6363275,45.4747296 15.7589876,40.7787762 18.7671783,37.3463156 L19.5842939,36.3997075 C22.0356197,33.5393588 27.177667,31.8971975 33.6818203,31.8971975 C40.7551991,31.8971975 45.1011969,33.2841737 47.7751207,36.4038166 L48.5963565,37.3504247 C51.6007439,40.7787762 55.7192838,45.4706205 60.2006153,45.4706205 C61.0878805,45.4706205 61.9462195,45.2895255 62.7633985,44.9314656 C67.7857479,42.7419524 68.7266395,34.0666078 65.3344222,21.1177034 L65.3343377,21.1177066 Z M22.9646365,21.9943442 L19.6012608,21.9943442 L19.6012608,25.2415797 C19.6012608,26.4351125 18.5489223,27.4393111 17.3067152,27.4393111 C16.0603983,27.4393111 15.0080493,26.4350809 15.0080493,25.2415797 L15.0080493,21.9943442 L11.8510021,21.9943442 C10.6583539,21.9943442 9.65143299,20.9448508 9.65143299,19.701893 C9.65143299,18.4589456 10.658375,17.4094417 11.8510021,17.4094417 L15.0080493,17.4094417 L15.0080493,14.1580971 C15.0080493,12.9686734 16.0603878,11.9603657 17.3067152,11.9603657 C18.5489118,11.9603657 19.6012608,12.9645854 19.6012608,14.1580971 L19.6012608,17.4094417 L22.9646365,17.4094417 C24.1572847,17.4094417 25.1642056,18.4589351 25.1642056,19.701893 C25.1642056,20.9448403 24.1531328,21.9943442 22.9646365,21.9943442 Z M46.846125,25.9782659 C44.984943,25.9782659 43.4703886,24.4678062 43.4703886,22.6116561 C43.4703886,20.755506 44.9890632,19.2450463 46.846125,19.2450463 C48.7073069,19.2450463 50.2177411,20.755506 50.2177411,22.6116561 C50.2136135,24.4678062 48.7031867,25.9782659 46.846125,25.9782659 Z M53.1395126,19.701893 C51.2783306,19.701893 49.7678965,18.1914333 49.7678965,16.3352832 C49.7678965,14.479133 51.2824509,12.9727825 53.1395126,12.9727825 C55.0006946,12.9727825 56.5152489,14.4832421 56.5152489,16.3352832 C56.5152489,18.1914333 55.0006946,19.701893 53.1395126,19.701893 Z" id="Shape"></path>
                    </g>
                </g>
            </g>
        </g>
    </g>
</svg>