<?xml version="1.0" encoding="UTF-8"?>
<svg width="26px" height="26px" viewBox="0 0 26 26" version="1.1" xmlns="http://www.w3.org/2000/svg" xmlns:xlink="http://www.w3.org/1999/xlink">
    <!-- Generator: Sketch 49 (51002) - http://www.bohemiancoding.com/sketch -->
    <desc>Created with Sketch.</desc>
    <defs></defs>
    <g id="Re-Design" stroke="none" stroke-width="1" fill="none" fill-rule="evenodd">
        <g id="2.3_Mobile_Mockup_NavSearch" transform="translate(-254.000000, -947.000000)" fill="#90918D" fill-rule="nonzero">
            <g id="Group" transform="translate(191.000000, 441.000000)">
                <g id="np_gift_917082_000000" transform="translate(63.000000, 506.000000)">
                    <path d="M12.9452834,3.54693789 C12.2980144,1.66465194 11.0034763,-0.00399724504 8.64709345,7.19266075e-06 C7.83422064,0.0612717524 7.12500797,0.413231793 6.60415059,0.907279294 C5.91011637,1.56557548 5.50935976,2.46106786 5.50178671,3.34878496 C5.50178671,4.01358836 5.80645948,4.56366462 6.22996436,4.99774566 L0,4.99774566 L0,10.3396656 L12.2981115,10.3396656 L12.2981115,7.66873898 L13.5926495,7.66873898 L13.5926495,10.3396656 L25.890761,10.3396656 L25.890761,4.99774566 L19.6607966,4.99774566 C20.0843047,4.56366462 20.3889743,4.01358836 20.3889743,3.34878496 C20.3813889,2.46240267 19.9806446,1.56554211 19.2866104,0.907279294 C18.765753,0.413231793 18.0565403,0.0612750895 17.2436675,7.19266075e-06 C14.8872199,-0.00390347446 13.5927466,1.66461857 12.9454776,3.54693789 L12.9452834,3.54693789 Z M8.72800207,1.33485313 C10.4852404,1.29444502 11.7633378,3.91454527 11.9238929,4.9965777 L9.3853685,4.9965777 C8.91635736,4.9965777 8.1805743,4.78019124 7.63573559,4.43345365 C7.09465105,4.08933897 6.80137346,3.67871726 6.7962924,3.35932998 C6.7962924,2.66716292 7.13636754,2.23958909 7.48401574,1.89937873 C7.80891242,1.59044304 8.21724209,1.37146036 8.72800207,1.33625468 L8.72800207,1.33485313 Z M17.1842482,1.3387638 C17.6848785,1.37787047 18.0868973,1.5942536 18.4067129,1.89798352 C18.8390562,2.30860524 19.0881254,2.8977915 19.0944362,3.34752323 C18.9187124,3.87674304 18.6026736,4.20654186 18.254993,4.43205844 C17.710122,4.77880937 16.9743713,4.99518249 16.5053601,4.99518249 L13.9668357,4.99518249 C14.2399024,3.99927883 15.5344566,1.32978718 17.1842159,1.33746235 L17.1842482,1.3387638 Z M1.61807547,11.0058101 L1.61807547,25.3603844 L12.2980144,25.3603844 L12.2980144,13.008029 L13.5925524,13.008029 L13.5925524,25.3603844 L24.2724913,25.3603844 L24.2724913,11.0058101 L1.61807547,11.0058101 Z" id="Shape"></path>
                </g>
            </g>
        </g>
    </g>
</svg>