<?xml version="1.0" encoding="UTF-8"?>
<svg width="67px" height="58px" viewBox="0 0 67 58" version="1.1" xmlns="http://www.w3.org/2000/svg" xmlns:xlink="http://www.w3.org/1999/xlink">
    <!-- Generator: Sketch 49 (51002) - http://www.bohemiancoding.com/sketch -->
    <desc>Created with Sketch.</desc>
    <defs></defs>
    <g id="Re-Design" stroke="none" stroke-width="1" fill="none" fill-rule="evenodd">
        <g id="2.3_Mobile_Mockup_NavSearch" transform="translate(-221.000000, -631.000000)" fill="#FFFFFF" fill-rule="nonzero">
            <g id="Group" transform="translate(191.000000, 441.000000)">
                <g id="Group-16" transform="translate(30.000000, 190.000000)">
                    <g id="np_football-uniform_91300_000000">
                        <path d="M0.176848489,18.4870714 C3.75305405,21.3483613 6.92217034,25.1126857 10.7762601,28.195881 C11.1327525,27.8695195 11.7503281,27.2843476 12.4689323,26.5950077 C8.71868079,23.5030256 2.89425019,17.608597 1.90904386,16.688853 C1.26061857,17.3500099 0.668301887,17.9605054 0.17706407,18.4866393 L0.176848489,18.4870714 Z" id="Shape"></path>
                        <path d="M64.5141274,16.6893571 C63.5288492,17.6093173 57.704203,23.5034577 53.954239,26.5955119 C54.6728432,27.2819852 55.2904116,27.8699732 55.6469111,28.1963851 C59.4981984,25.1129018 62.6701172,21.3485054 66.2463228,18.4875756 C65.7522824,17.9614633 65.1600088,17.3509679 64.514343,16.6897893 L64.5141274,16.6893571 Z" id="Shape"></path>
                        <polygon id="Shape" points="36.8873897 20.0651131 37.4909023 20.793778 36.5112292 21.6096637 35.9077167 20.8809988 35.270516 21.4099201 35.8768382 22.1385849 34.8943626 22.9544707 34.2908501 22.2258058 33.6536494 22.7547342 34.2571619 23.4833991 33.2774888 24.2992848 32.6739763 23.5706199 32.0367756 24.0995484 32.6402881 24.8282133 31.660615 25.644099 31.0571025 24.9154341 30.4199018 25.4443626 31.0234144 26.1758364 30.0465438 26.9889132 29.4402216 26.2574393 28.8030209 26.7891767 29.4093431 27.5178416 28.4296701 28.3337273 27.8233478 27.6050624 27.1861471 28.1339909 28.9573627 30.2750427 29.5945634 29.7433053 28.9910508 29.0146404 29.9707239 28.1987547 30.5742364 28.9274196 31.2114371 28.3984983 30.6079246 27.6698335 31.5875977 26.8539477 32.1911102 27.5854215 32.8283109 27.0536842 32.2247984 26.3250193 33.2044715 25.5091336 33.807984 26.2377985 34.4451847 25.70887 33.8416722 24.9802051 34.8213452 24.1643194 35.4276675 24.8929843 36.0620585 24.3640558 35.4585459 23.635391 36.438219 22.8195052 37.0417315 23.5481701 37.6789322 23.0192489 37.0754197 22.290584 38.0550928 21.4746983 38.6586053 22.2033632 39.295806 21.6744347 37.5245904 19.5361918"></polygon>
                        <path d="M57.289281,9.01738095 C54.5299847,5.60186786 50.6702898,4.268275 46.8328716,2.79128274 C46.7430461,2.75752158 46.6532205,2.72094717 46.563395,2.68718673 C44.2223263,1.42396113 41.5331658,0.71495875 39.2681254,0.315442679 L33.2105077,3.8744272 L27.1556926,0.315442679 C24.8904367,0.712135417 22.1984736,1.42396113 19.860423,2.68718673 C19.7705975,2.72094789 19.680772,2.7575223 19.5909464,2.79128274 C15.7537438,4.26834702 11.8939771,5.60186786 9.13453703,9.01738095 C7.72262353,10.7617256 5.25522422,13.2825589 3.07691938,15.4995238 C6.50710456,18.3242256 12.7529247,24.5082619 13.6792054,25.4337679 C14.7936168,24.3646464 15.9360537,23.2674357 16.6378426,22.611875 C16.7332804,22.6540766 16.8315279,22.6962797 16.9353878,22.7356695 L16.9353878,57.3070981 L33.1938074,57.3070981 L33.21065,57.3070981 L33.2274919,57.3070981 L49.4859115,57.3070981 L49.4859115,22.7356695 C49.5897714,22.6934679 49.6880189,22.6512648 49.7834567,22.611875 C50.4852168,23.2674069 51.6276825,24.3646464 52.7420939,25.4337679 C53.6712491,24.5081179 59.9169254,18.3242256 63.3443799,15.4995238 C61.1689495,13.2825589 58.7015502,10.7617256 57.2895648,9.01738095 L57.289281,9.01738095 Z M25.2301927,34.5073274 C25.0786104,34.4848199 24.927028,34.4482455 24.7782554,34.4116726 C23.0350654,33.9812151 22.428779,33.2525214 22.3248689,31.457544 C22.265921,30.4475541 22.4960979,28.7426065 22.7796088,28.1432964 C24.5565013,30.289966 26.3249143,32.4281368 28.1382401,34.6142035 C27.1305415,34.7098583 26.178894,34.6592184 25.2301209,34.5072914 L25.2301927,34.5073274 Z M42.8446184,24.308756 C41.7723172,26.8239714 40.3323063,29.0831423 38.2270116,30.8555762 C36.4473165,32.352303 34.378527,33.3117321 32.1525787,33.9362506 C31.695029,34.062854 31.2347055,34.1810163 30.7686907,34.265421 C30.6395647,34.2879285 30.431845,34.2204061 30.3476318,34.1191263 C28.1160065,31.4407048 25.8900582,28.7567376 23.6781227,26.0611024 C23.5882972,25.9513814 23.5574187,25.7150496 23.6135604,25.5828211 C24.6128514,23.1660622 25.9686419,20.9941122 27.9391983,19.2357229 C30.1708235,17.2438324 32.8262816,16.1550485 35.7065908,15.5445027 C35.8469414,15.5135548 36.0771175,15.6345324 36.1809846,15.7555108 C37.2925934,17.0721781 38.387315,18.4001531 39.484911,19.7280561 C40.5656198,21.0334876 41.6435261,22.3417281 42.72984,23.6387329 C42.9094911,23.8525571 42.9656285,24.0298005 42.8449317,24.308331 L42.8446184,24.308756 Z M43.6614558,21.7288631 C41.8705504,19.5681488 40.1077425,17.4355958 38.2803321,15.2270577 C38.7322694,15.215804 39.1168592,15.1623487 39.4929766,15.2073635 C40.4052446,15.3170846 41.3259922,15.4071144 42.2130372,15.6237476 C43.3133639,15.8910208 43.9085119,16.6703256 44.0572629,17.8041244 C44.2032258,18.9407321 44.0348066,20.8510916 43.6614701,21.7288458 L43.6614558,21.7288631 Z" id="Shape"></path>
                    </g>
                </g>
            </g>
        </g>
    </g>
</svg>