<svg xmlns="http://www.w3.org/2000/svg" width="16" height="16" viewBox="0 0 16 16">
    <g fill="#EE3536" fill-rule="evenodd">
        <path d="M15.144 1.65h-1.588V.38a.318.318 0 0 0-.319-.319h-.953a.315.315 0 0 0-.315.32V1.65H10.38V.38a.318.318 0 0 0-.319-.319H9.11a.32.32 0 0 0-.318.32V1.65H7.203V.38a.318.318 0 0 0-.319-.319h-.947a.32.32 0 0 0-.318.32V1.65H4.03V.38a.316.316 0 0 0-.319-.319h-.95a.318.318 0 0 0-.318.32V1.65H.856a.795.795 0 0 0-.794.794v12.7c0 .437.357.793.794.793h14.288a.795.795 0 0 0 .793-.793v-12.7a.795.795 0 0 0-.793-.794zM14.35 14.03c0 .175-.14.319-.319.319H1.97a.32.32 0 0 1-.32-.319V5.144c0-.175.141-.32.32-.32H14.03a.32.32 0 0 1 .319.32v8.887z"/>
        <path d="M9.356 6.644a.794.794 0 0 0-1.122 1.122L9.26 8.79H4.825a.795.795 0 0 0 0 1.587h4.434l-1.028 1.028a.794.794 0 0 0 0 1.122c.303.303.9.222 1.122 0l2.381-2.381a.79.79 0 0 0 .232-.563.808.808 0 0 0-.232-.562L9.356 6.644z"/>
    </g>
</svg>
