<?xml version="1.0" encoding="UTF-8"?>
<svg width="32px" height="44px" viewBox="0 0 32 44" version="1.1" xmlns="http://www.w3.org/2000/svg" xmlns:xlink="http://www.w3.org/1999/xlink">
    <!-- Generator: Sketch 49 (51002) - http://www.bohemiancoding.com/sketch -->
    <title>np_book_307147_000000</title>
    <desc>Created with Sketch.</desc>
    <defs></defs>
    <g id="Casino" stroke="none" stroke-width="1" fill="none" fill-rule="evenodd">
        <g id="1.1_BOL_Casino_Lander" transform="translate(-845.000000, -3048.000000)" fill="#FFFFFF" fill-rule="nonzero">
            <g id="np_book_307147_000000" transform="translate(845.000000, 3048.000000)">
                <path d="M0,36.123551 C0.951771429,35.2817143 2.28571429,34.8134286 3.61965714,34.8134286 L31.9053714,34.8134286 L31.9053714,0.0193061224 L4.95177143,0.0193061224 C2.28571429,0.0193061224 0.0946285714,2.17126531 0.0946285714,4.78971429 L0,36.123551 Z M6.76251429,5.44387755 L25.2393143,5.44387755 L25.2393143,7.50110204 L6.76251429,7.50110204 L6.76251429,5.44387755 Z M6.76251429,14.1428571 L25.2393143,14.1428571 L25.2393143,16.2000816 L6.76251429,16.2000816 L6.76251429,14.1428571 Z" id="Shape"></path>
                <path d="M31.9053714,41.4551837 L5.33394286,41.4551837 L5.33394286,39.3979592 L31.9053714,39.3979592 L31.9053714,36.872449 L3.71428571,36.872449 C1.71428571,36.872449 0.0946285714,38.4631837 0.0946285714,40.4274694 C0.0946285714,42.3917551 1.71428571,43.9824898 3.71428571,43.9824898 L32,43.9824898 L32,41.4569796 L31.9053714,41.4551837 Z" id="Shape"></path>
            </g>
        </g>
    </g>
</svg>