<?xml version="1.0" encoding="UTF-8"?>
<svg width="15px" height="17px" viewBox="0 0 15 17" version="1.1" xmlns="http://www.w3.org/2000/svg" xmlns:xlink="http://www.w3.org/1999/xlink">
    <!-- Generator: sketchtool 50.2 (55047) - http://www.bohemiancoding.com/sketch -->
    <title>502C6BC0-189C-46CB-B0AF-8813D36A3D5F</title>
    <desc>Created with sketchtool.</desc>
    <defs></defs>
    <g id="Blog" stroke="none" stroke-width="1" fill="none" fill-rule="evenodd">
        <g id="1.1.2_Blog_Lander_HoverState&amp;ArticleTrim" transform="translate(-1159.000000, -5795.000000)" fill="#EE3536">
            <path d="M1173.59763,5795 L1159.40221,5795 C1159.17481,5795 1159,5795.17708 1159,5795.40744 L1159.00068,5808.10419 C1159.00068,5808.33454 1159.1755,5808.51162 1159.40289,5808.51162 L1163.96589,5808.51162 L1166.49999,5812 L1169.03479,5808.51162 L1173.59779,5808.51162 C1173.82519,5808.51162 1174,5808.33454 1174,5808.10419 L1173.99932,5795.40744 C1173.99932,5795.19508 1173.8245,5795 1173.59779,5795 L1173.59763,5795 Z M1169.89105,5801.17988 L1168.35255,5802.49002 L1168.84217,5804.47318 C1168.92957,5804.84534 1168.52736,5805.14624 1168.21256,5804.93389 L1166.49992,5803.87207 L1164.78661,5804.95257 C1164.4718,5805.14764 1164.06959,5804.86403 1164.157,5804.49187 L1164.64661,5802.5087 L1163.10811,5801.19856 C1162.81107,5800.95093 1162.96812,5800.47223 1163.35257,5800.43696 L1165.36293,5800.29515 L1166.11477,5798.40053 C1166.25476,5798.04636 1166.76144,5798.04636 1166.90143,5798.40053 L1167.65327,5800.29515 L1169.66363,5800.43696 C1170.03102,5800.45425 1170.18876,5800.93225 1169.89103,5801.17988 L1169.89105,5801.17988 Z" id="Fill-1"></path>
        </g>
    </g>
</svg>