<?xml version="1.0" encoding="UTF-8"?>
<svg width="46px" height="45px" viewBox="0 0 46 45" version="1.1" xmlns="http://www.w3.org/2000/svg" xmlns:xlink="http://www.w3.org/1999/xlink">
    <!-- Generator: Sketch 49 (51002) - http://www.bohemiancoding.com/sketch -->
    <desc>Created with Sketch.</desc>
    <defs></defs>
    <g id="Re-Design" stroke="none" stroke-width="1" fill="none" fill-rule="evenodd">
        <g id="2.3_Mobile_Mockup_NavSearch" transform="translate(-544.000000, -795.000000)" fill="#FFFFFF" fill-rule="nonzero">
            <g id="Group" transform="translate(191.000000, 441.000000)">
                <g id="Group-12" transform="translate(338.000000, 354.000000)">
                    <path d="M55.4406691,12.0557794 L60.0833333,16.6920045 L60.0833333,44.2857143 L49.3239179,44.2857143 L49.3239179,17.1317573 L55.4406691,12.0557794 Z M34.6650902,16.1331244 L32.5309014,16.1331244 L32.5291692,44.2852714 L43.2885847,44.2852714 L43.2885847,22.1408643 L41.798799,23.3760248 L34.6650902,16.1331244 Z M15.7361111,44.2852714 L26.4955266,44.2852714 L26.4955266,25.2062908 L15.7361111,25.2062908 L15.7361111,44.2852714 Z M47.04405,0 L51.1028002,4.0531209 L42.4068404,11.2685202 L35.0443882,3.7918378 L15.7362442,17.3369309 L19.3792433,22.5160934 L34.2926216,12.0554694 L41.9752575,19.8572057 L55.6030226,8.54896165 L60.0829342,13.0208884 L60.0829342,0 L47.04405,0 Z" id="Shape"></path>
                </g>
            </g>
        </g>
    </g>
</svg>