<?xml version="1.0" encoding="UTF-8"?>
<svg width="23px" height="23px" viewBox="0 0 23 23" version="1.1" xmlns="http://www.w3.org/2000/svg" xmlns:xlink="http://www.w3.org/1999/xlink">
    <!-- Generator: Sketch 49 (51002) - http://www.bohemiancoding.com/sketch -->
    <desc>Created with Sketch.</desc>
    <defs></defs>
    <g id="Re-Design" stroke="none" stroke-width="1" fill="none" fill-rule="evenodd">
        <g id="1.1_BetOnline_Desktop" transform="translate(-1056.000000, -3632.000000)" fill-rule="nonzero">
            <g id="Group-46" transform="translate(-126.000000, 3419.000000)">
                <g id="Group-31" transform="translate(1132.000000, 194.000000)">
                    <g id="Group-9-Copy" transform="translate(50.000000, 19.000000)">
                        <path d="M14.7849965,22.7736967 C14.7312123,22.7782758 14.6767885,22.7806122 14.621819,22.7806122 L7.85392178,22.7806122 C7.79814419,22.7806122 7.74292847,22.7782066 7.68837273,22.7734933 L4.79227715,22.7734933 C3.50147681,22.7734933 2.45473627,21.7861956 2.45473627,20.5682437 L2.45473627,9.8920453 L0.974207475,9.8920453 C0.564782081,9.8920453 0.199339194,9.65040755 0.058983253,9.28774753 C-0.0811570873,8.92508751 0.0337579918,8.51828996 0.347025552,8.26973665 L10.4953422,0.215551855 C10.8577667,-0.0718506182 11.3866348,-0.0718506182 11.7494904,0.215551855 L21.8264433,8.21298839 C22.0836547,8.3779448 22.2524699,8.65700792 22.2529011,8.97308962 C22.2529011,9.48077297 21.8169569,9.8920453 21.2790336,9.8920453 C21.2770932,9.8920453 21.2736436,9.8922487 21.2706252,9.8920453 L19.790312,9.8920453 L19.790312,20.5684471 C19.790312,21.7857888 18.743787,22.7736967 17.4529867,22.7736967 L14.7849965,22.7736967 Z" id="Combined-Shape" fill="#EE3536"></path>
                        <g id="info" transform="translate(7.274987, 5.288356)" fill="#FFFFFF">
                            <path d="M6.95823398,13.0149357 L6.73139989,13.8482441 C6.05089761,14.0896198 5.50731059,14.2733321 5.10253032,14.3996424 C4.69731355,14.5263451 4.2264764,14.5893695 3.69001886,14.5893695 C2.86619934,14.5893695 2.2254185,14.4080108 1.76840382,14.0477779 C1.31138914,13.6861066 1.08280905,13.2278066 1.08280905,12.6718318 C1.08280905,12.4566073 1.09939602,12.2352373 1.13387946,12.0096831 C1.1686539,11.7838674 1.2239438,11.5295468 1.29960366,11.2452831 L2.15004963,8.54020164 C2.2257095,8.28117388 2.29002038,8.03574474 2.34152729,7.80365273 C2.39376169,7.57299903 2.41893315,7.36078193 2.41893315,7.16974732 C2.41893315,6.8242898 2.33934479,6.58265259 2.18089558,6.44679704 C2.02244636,6.31133375 1.72009791,6.24255606 1.27123121,6.24255606 C1.05138111,6.24255606 0.825420015,6.27419903 0.595093929,6.33539287 C0.363749346,6.39684822 0.166015201,6.45621147 0,6.51139053 L0.227416091,5.67742835 C0.784534589,5.47357964 1.31706363,5.2990203 1.82645821,5.15414258 C2.3358528,5.00887259 2.81716593,4.93617222 3.27243461,4.93617222 C4.09057964,4.93617222 4.72190301,5.11386971 5.16524071,5.46926469 C5.60857841,5.82492119 5.83017451,6.28596708 5.83017451,6.85410218 C5.83017451,6.97165188 5.81562454,7.17876949 5.78434209,7.47480122 C5.75378715,7.77148673 5.69689675,8.04332859 5.6139619,8.29058831 L4.76715342,10.984817 C4.69775005,11.2012183 4.63533066,11.4486088 4.58105926,11.7269885 C4.52504186,12.0035375 4.49826991,12.2148393 4.49826991,12.3565789 C4.49826991,12.7143275 4.58702475,12.9585798 4.76497093,13.0884206 C4.94422661,13.2182614 5.25297705,13.2828549 5.69151326,13.2828549 C5.89739539,13.2828549 6.13164997,13.2500351 6.391949,13.1855724 C6.65152053,13.1211096 6.84081569,13.0644923 6.95823398,13.0149357 Z M7.1729916,1.70375153 C7.1729916,2.1731658 6.97613045,2.5740639 6.58051666,2.90369994 C6.18592137,3.23451278 5.71042823,3.40004996 5.15418273,3.40004996 C4.59619123,3.40004996 4.11953409,3.23451278 3.72042831,2.90369994 C3.32205002,2.57393314 3.12242438,2.1731658 3.12242438,1.70375153 C3.12242438,1.23525255 3.32205002,0.833700672 3.72042831,0.499880437 C4.11880659,0.166583227 4.59633673,0 5.15418273,0 C5.71028273,0 6.18592137,0.166975495 6.58051666,0.499880437 C6.97642145,0.833700672 7.1729916,1.2353833 7.1729916,1.70375153 Z" id="Shape"></path>
                        </g>
                    </g>
                </g>
            </g>
        </g>
    </g>
</svg>