<?xml version="1.0" encoding="UTF-8"?>
<svg width="32px" height="34px" viewBox="0 0 16 17" version="1.1" xmlns="http://www.w3.org/2000/svg" xmlns:xlink="http://www.w3.org/1999/xlink">
    <!-- Generator: Sketch 48.2 (47327) - http://www.bohemiancoding.com/sketch -->
    <title>UserAccount</title>
    <desc>Created with Sketch.</desc>
    <defs></defs>
    <g id="1.1_BOL_Poker_Lander-Copy" stroke="none" stroke-width="1" fill="none" fill-rule="evenodd" transform="translate(-854.000000, -506.000000)">
        <g id="UserAccount" transform="translate(854.000000, 506.000000)" fill="#90918D" fill-rule="nonzero">
            <ellipse id="Shape" cx="8.3" cy="4.4" rx="4.2" ry="4.3" fill="#90918D"></ellipse>
            <path fill="#90918D" d="M15.6,12 C15.5,11.7 15.3,11.5 15.2,11.2 C14.3,10 13,9.1 11.5,8.9 C11.3,8.9 11.1,8.9 11,9 C10.2,9.6 9.3,9.9 8.3,9.9 C7.3,9.9 6.4,9.6 5.7,9.1 C5.5,9 5.3,8.9 5.1,8.9 C3.6,9.1 2.3,9.9 1.4,11.2 C1.2,11.5 1.1,11.7 1,12 C0.9,12.1 1,12.3 1,12.3 C1.2,12.6 1.3,12.8 1.5,13.1 C1.7,13.4 2,13.8 2.3,14.1 C2.6,14.4 2.9,14.6 3.2,14.8 C4.7,15.9 6.4,16.5 8.2,16.5 C10,16.5 11.8,15.9 13.2,14.8 C13.5,14.6 13.8,14.3 14.1,14.1 C14.4,13.8 14.7,13.5 14.9,13.1 C15.1,12.9 15.2,12.6 15.4,12.3 C15.6,12.3 15.6,12.2 15.6,12 Z" id="Shape"></path>
        </g>
    </g>
</svg>