<?xml version="1.0" encoding="UTF-8"?>
<svg width="26px" height="33px" viewBox="0 0 26 33" version="1.1" xmlns="http://www.w3.org/2000/svg" xmlns:xlink="http://www.w3.org/1999/xlink">
    <!-- Generator: Sketch 48.2 (47327) - http://www.bohemiancoding.com/sketch -->
    <title>BetSlip</title>
    <desc>Created with Sketch.</desc>
    <defs></defs>
    <g id="1.1_BOL_Poker_Lander-Copy" stroke="none" stroke-width="1" fill="none" fill-rule="evenodd" transform="translate(-930.000000, -498.000000)">
        <g id="BetSlip" transform="translate(930.000000, 498.000000)" fill="#90918D" fill-rule="nonzero">
            <path d="M24.7,0 L1.5,0 L1.3,0 L0,0 L0,1.3 L0,2.1 L0,31.6 C0.1,32.9 0.1,32.9 0.7,32.9 C1.3,32.9 1.7,32.6 1.9,32.1 C2.1,31.7 2.2,31 3.1,31 C4,31 4.2,31.7 4.3,32.1 C4.5,32.6 4.9,32.9 5.5,32.9 C6.1,32.9 6.5,32.6 6.7,32.1 C6.9,31.7 7,31 7.9,31 C8.8,31 9,31.7 9.1,32.1 C9.3,32.6 9.7,32.9 10.3,32.9 C10.9,32.9 11.3,32.6 11.5,32.1 C11.7,31.7 11.8,31 12.7,31 C13.6,31 13.8,31.7 13.9,32.1 C14.2,32.6 14.5,32.9 15.1,32.9 C15.7,32.9 16.1,32.6 16.3,32.1 C16.5,31.7 16.6,31 17.5,31 C18.4,31 18.6,31.7 18.7,32.1 C18.9,32.6 19.3,32.9 19.9,32.9 C20.5,32.9 20.9,32.6 21.1,32.1 C21.3,31.8 21.4,31 22.3,31 C23,31 23.4,31.3 23.6,31.9 C23.8,32.3 23.9,32.9 24.6,32.9 C25.2,32.8 25.2,32.8 25.2,31.5 L25.2,8 L25.2,1.3 L25.2,0 C25.1,0 24.9,0 24.7,0 Z" id="Shape"></path>
        </g>
    </g>
</svg>