<?xml version="1.0" encoding="UTF-8"?>
<svg width="28px" height="28px" viewBox="0 0 28 28" version="1.1" xmlns="http://www.w3.org/2000/svg" xmlns:xlink="http://www.w3.org/1999/xlink">
    <!-- Generator: Sketch 49 (51002) - http://www.bohemiancoding.com/sketch -->
    <title>Search</title>
    <desc>Created with Sketch.</desc>
    <defs></defs>
    <g id="Re-Design" stroke="none" stroke-width="1" fill="none" fill-rule="evenodd">
        <g id="shape" transform="translate(-210.000000, -539.000000)" fill="#90918D" fill-rule="nonzero">
            <g id="Group-5" transform="translate(192.000000, 512.000000)">
                <g id="Group-7">
                    <g id="np_magnifying-glass_888719_000000" transform="translate(17.960000, 27.517857)">
                        <path d="M27.0618913,24.8257699 L18.8251596,16.5937426 C20.0919981,14.9316086 20.8048799,12.7945792 20.8048799,10.4987447 C20.8048799,4.79999955 16.2112595,0.209850294 10.5082049,0.209850294 C4.80515022,0.209850294 0.210008986,4.80151922 0.210008986,10.5002644 C0.210008986,16.1990095 4.80362941,20.7891588 10.5066841,20.7891588 C12.8042547,20.7891588 14.8626772,20.0768156 16.6062911,18.8109344 L24.8445436,27.0429617 C25.1608845,27.3590635 25.5574255,27.5178571 25.9539779,27.5178571 C26.3505303,27.5178571 26.7455619,27.3590635 27.0634121,27.0429617 C27.696109,26.4092613 27.696109,25.4594704 27.0619267,24.8258079 L27.0618913,24.8257699 Z M10.5082049,17.6236958 C6.54724331,17.6236958 3.37938656,14.4582328 3.37938656,10.5002644 C3.37938656,6.54229591 6.54724331,3.37683293 10.5082049,3.37683293 C14.4691664,3.37683293 17.6370232,6.54229591 17.6370232,10.5002644 C17.6370232,14.4567132 14.4676836,17.6236958 10.5082049,17.6236958 Z" id="Shape"></path>
                    </g>
                </g>
            </g>
        </g>
    </g>
</svg>