<?xml version="1.0" encoding="UTF-8"?>
<svg width="29px" height="33px" viewBox="0 0 29 33" version="1.1" xmlns="http://www.w3.org/2000/svg" xmlns:xlink="http://www.w3.org/1999/xlink">
    <!-- Generator: Sketch 49 (51002) - http://www.bohemiancoding.com/sketch -->
    <title>deposit</title>
    <desc>Created with Sketch.</desc>
    <defs></defs>
    <g id="Re-Design" stroke="none" stroke-width="1" fill="none" fill-rule="nonzero">
        <g id="Shape" transform="translate(-494.000000, -466.000000)" fill="#90918D">
            <g id="Group" transform="translate(191.000000, 441.000000)">
                <g id="Group-7" transform="translate(1.000000, 0.000000)">
                    <g id="deposit" transform="translate(301.000000, 23.000000)">
                        <g id="Group-17" transform="translate(0.728000, 0.928571)">
                            <g id="np_dollar_811469_000000" transform="translate(19.042647, 17.716749) rotate(6.000000) translate(-19.042647, -17.716749) translate(9.042647, 1.216749)" fill-rule="nonzero">
                                <path d="M8.29903242,32.1399458 L11.1421949,32.1399458 C11.7876206,32.1399458 12.3237739,31.6144977 12.3237739,30.9624445 L12.3237739,28.2394586 L12.9145634,28.0819673 C17.7338931,26.8735683 19.4444413,23.5690286 19.4444413,21.1126666 C19.4444413,16.5601639 15.5068531,14.6686258 11.6475326,13.4131267 C8.024528,12.2208925 6.86639158,11.498227 6.86639158,10.4310905 C6.86639158,9.47435655 7.97707579,8.51619075 10.4657646,8.51619075 C13.2070278,8.51619075 14.9232476,9.29334162 15.6560156,9.6303896 C15.8140522,9.70103968 15.9794733,9.74078082 16.1434311,9.74078082 C16.5998041,9.74078082 17.0177995,9.47437162 17.2142252,9.06517766 L18.3411679,6.68662498 C18.475573,6.41138357 18.4903418,6.0816719 18.3810467,5.79172397 C18.279136,5.49293254 18.057589,5.25742097 17.7739987,5.12497562 C16.4196256,4.4891249 14.9470569,4.08142684 13.2839987,3.88564134 L12.5913098,3.79880015 L12.5913098,1.43644988 C12.5913098,0.793251559 12.064042,0.266296164 11.4097309,0.266296164 L8.61383152,0.266296164 C7.96840584,0.266296164 7.43225257,0.791744357 7.43225257,1.43644988 L7.43225257,4.06523573 L6.8414631,4.2138948 C2.95113805,5.19564831 0.626168783,7.68309631 0.626168783,10.8625383 C0.626168783,15.054443 4.79288878,16.9222427 8.88096289,18.2014802 C12.6531679,19.4260816 13.1656517,20.4858327 13.1656517,21.3645313 C13.1656517,22.7230853 11.402131,23.7107169 8.9754892,23.7107169 C6.91216878,23.7107169 4.69080036,23.1852687 3.03658984,22.3050629 C2.86378439,22.2108628 2.67473176,22.1637627 2.47680499,22.1637627 C2.3512627,22.1637627 2.22424202,22.1873127 2.09869973,22.2270539 C1.7914892,22.3374451 1.53891489,22.5641132 1.40601089,22.8629046 L0.318958257,25.2723549 C0.0752580716,25.830208 0.279079495,26.4734063 0.815221415,26.772209 C2.19322605,27.5655623 4.24180036,28.1528435 6.41571657,28.3971608 L7.11729089,28.4678109 L7.11729089,30.9641137 C7.11729089,31.6146974 7.64455868,32.1401455 8.29886984,32.1401455 L8.29903242,32.1399458 Z" id="dollar"></path>
                            </g>
                            <polygon id="Triangle" points="4.15915789 9.8665889 11.3483273 8.73618763 11.3483273 10.9969902"></polygon>
                            <polygon id="Triangle-Copy-3" points="5.98666667 23.5570043 11.3213725 22.5853155 11.3213725 24.5286932"></polygon>
                            <polygon id="Triangle-Copy-2" points="7.9544264 20.7938012 22.3133799 19.6634 22.3133799 21.9242025"></polygon>
                            <polygon id="Triangle-Copy" points="0.0640637336 15.8953957 13.6169589 14.7649944 13.6169589 17.025797"></polygon>
                        </g>
                    </g>
                </g>
            </g>
        </g>
    </g>
</svg>