<?xml version="1.0" encoding="UTF-8"?>
<svg width="26px" height="33px" viewBox="0 0 26 33" version="1.1" xmlns="http://www.w3.org/2000/svg" xmlns:xlink="http://www.w3.org/1999/xlink">
    <!-- Generator: Sketch 48.2 (47327) - http://www.bohemiancoding.com/sketch -->
    <desc>Created with Sketch.</desc>
    <defs></defs>
    <g id="1.1_BOL_Poker_Lander-Copy" stroke="none" stroke-width="1" fill="none" fill-rule="evenodd" transform="translate(-887.000000, -498.000000)">
        <g id="BetslipBranded" transform="translate(887.000000, 498.000000)" fill="#90918D" fill-rule="nonzero">
            <path d="M24.7,0 L1.5,0 L1.3,0 L0,0 L0,1.3 L0,2.1 L0,31.6 C0.1,32.9 0.1,32.9 0.7,32.9 C1.3,32.9 1.7,32.6 1.9,32.1 C2.1,31.7 2.2,31 3.1,31 C4,31 4.2,31.7 4.3,32.1 C4.5,32.6 4.9,32.9 5.5,32.9 C6.1,32.9 6.5,32.6 6.7,32.1 C6.9,31.7 7,31 7.9,31 C8.8,31 9,31.7 9.1,32.1 C9.3,32.6 9.7,32.9 10.3,32.9 C10.9,32.9 11.3,32.6 11.5,32.1 C11.7,31.7 11.8,31 12.7,31 C13.6,31 13.8,31.7 13.9,32.1 C14.2,32.6 14.5,32.9 15.1,32.9 C15.7,32.9 16.1,32.6 16.3,32.1 C16.5,31.7 16.6,31 17.5,31 C18.4,31 18.6,31.7 18.7,32.1 C18.9,32.6 19.3,32.9 19.9,32.9 C20.5,32.9 20.9,32.6 21.1,32.1 C21.3,31.8 21.4,31 22.3,31 C23,31 23.4,31.3 23.6,31.9 C23.8,32.3 23.9,32.9 24.6,32.9 C25.2,32.8 25.2,32.8 25.2,31.5 L25.2,8 L25.2,1.3 L25.2,0 C25.1,0 24.9,0 24.7,0 Z M20.4,18.7 C20.4,19.5 20.2,20.1 19.8,20.6 C19.4,21.1 18.9,21.6 18.3,21.9 C17.7,22.2 17,22.5 16.3,22.6 C15.5,22.7 14.8,22.8 14.1,22.8 L7.1,22.8 L7.1,14.2 C7.1,14.2 1.8,13.9 0.6,13.9 C0.6,13.9 4.1,13.6 7.1,13.6 L7.1,7.9 L13.4,7.9 C14.1,7.9 14.9,7.9 15.6,8 C16.3,8.1 17,8.3 17.6,8.6 C18.2,8.9 18.7,9.3 19.1,9.8 C19.5,10.3 19.7,11 19.7,11.8 C19.7,12.7 19.4,13.4 18.9,13.9 C18.9,14 18.8,14 18.8,14 C18.8,14 18.7,14.1 18.6,14.2 C18.5,14.3 18.3,14.4 18.1,14.5 C18,14.6 17.9,14.6 17.8,14.7 C16.7,14.2 15.4,13.9 14.5,13.8 C15.3,13.5 15.6,13.2 15.7,13.1 C15.7,13.1 15.8,13 15.8,13 C15.9,12.8 16,12.6 16,12.3 C16,12 15.9,11.8 15.8,11.6 C15.7,11.4 15.5,11.3 15.2,11.2 C15,11.1 14.7,11 14.4,11 C14.1,11 13.8,10.9 13.5,10.9 L11,10.9 L11,13.8 L11.1,13.8 C15.1,14 17.9,14.8 19.3,16 C19.4,16.1 20.2,16.7 20.4,17.9 L20.4,18 C20.4,18.1 20.4,18.1 20.4,18.2 L20.4,18.3 C20.4,18.4 20.4,18.5 20.4,18.6 L20.4,18.7 C20.4,18.6 20.4,18.6 20.4,18.7 Z" id="Shape"></path>
            <path d="M12.1,15.1 L10.5,14.7 L10.7,14.9 C10.7,14.9 10.7,14.9 10.7,14.9 C10.7,14.9 10.8,15 10.8,15.2 L10.8,15.3 C10.8,15.4 10.8,15.6 10.8,15.8 C10.8,16.3 10.8,18.5 10.8,19.5 L10.8,19.8 L10.9,19.8 L14,19.8 C14.3,19.8 14.6,19.8 14.9,19.7 C15.2,19.6 15.5,19.5 15.7,19.4 C15.9,19.3 16.1,19.1 16.3,18.9 C16.3,18.9 16.3,18.9 16.3,18.9 C16.4,18.7 16.7,17.9 16,17 C15.7,16.5 14.6,15.8 12.1,15.1 Z" id="Shape"></path>
        </g>
    </g>
</svg>