<?xml version="1.0" encoding="UTF-8"?>
<svg width="24px" height="20px" viewBox="0 0 24 20" version="1.1" xmlns="http://www.w3.org/2000/svg" xmlns:xlink="http://www.w3.org/1999/xlink">
    <!-- Generator: Sketch 49 (51002) - http://www.bohemiancoding.com/sketch -->
    <title>Poker</title>
    <desc>Created with Sketch.</desc>
    <defs></defs>
    <g id="Re-Design" stroke="none" stroke-width="1" fill="none" fill-rule="evenodd">
        <g id="1.5_BetOnline_Desktop_VP_DataAnimation" transform="translate(-735.000000, -80.000000)" fill="#90918D" fill-rule="nonzero">
            <g id="Group-30" transform="translate(544.000000, 79.000000)">
                <g id="Group-24" transform="translate(186.000000, 1.000000)">
                    <g id="np_cards_62731_000000" transform="translate(5.000000, 0.000000)">
                        <path d="M7.53664867,18.6495049 C7.00680527,18.8721228 6.39587322,18.6193697 6.17486836,18.0856745 L0.863833751,5.27406345 C0.642821479,4.74037076 0.893751558,4.12500031 1.42359743,3.90238986 L8.80582683,0.797291345 C9.33567023,0.574673426 9.94660228,0.827426504 10.1676071,1.36112169 L11.6027428,4.82384035 L11.8797339,3.76616072 L10.776612,1.10553652 C10.4147027,0.233535661 9.41675888,-0.17963133 8.55104739,0.183961595 L1.16980627,3.28806464 C0.30409478,3.65260326 -0.106092215,4.65779709 0.254878271,5.52979794 L5.56591288,18.3424045 C5.92782224,19.2144053 6.92576604,19.6275723 7.79147753,19.2630088 L10.6135206,18.0760434 C10.3326752,17.9846624 10.0769074,17.8475921 9.85397542,17.6755188 L7.53664867,18.6495049 Z" id="Shape"></path>
                        <path d="M9.79685264,11.2922854 L9.82870254,11.1785463 C9.82870254,11.1785463 9.28438079,11.2077109 8.88481784,10.8373264 C8.71592269,10.6798416 8.56535526,10.4445913 8.44569885,10.1918183 C8.69084006,10.481523 9.14058557,10.5806711 9.50056777,10.4280467 C9.93390531,10.2462577 10.1385047,9.74463632 9.95708055,9.3081506 C9.77660272,8.87166489 9.27859934,8.66557912 8.8452618,8.84832127 C8.4978308,8.9941417 8.257505,9.36257755 8.26716547,9.72711617 C8.23145632,9.60559998 8.20539776,9.48991471 8.19092188,9.38395512 C8.52486282,9.15064344 8.64647108,8.65582358 8.48528207,8.26697078 C8.30480424,7.83048506 7.80680086,7.6243993 7.37346333,7.80714145 C6.94012579,7.98893045 6.73552644,8.49055181 6.91695055,8.92703752 C7.07909078,9.3168609 7.51725855,9.57933966 7.91874865,9.49962794 C7.98341203,9.58517556 8.04807541,9.68822093 8.10791102,9.80097953 C7.85794946,9.5336479 7.42557551,9.44517611 7.07619264,9.59197209 C6.64285511,9.77376108 6.43825575,10.2753824 6.61871629,10.7118682 C6.79919412,11.1483539 7.2971975,11.3544396 7.73053503,11.1726681 C8.08859008,11.0219873 8.33373376,10.6340976 8.30574064,10.2578872 C8.39453048,10.5125764 8.4514729,10.7818741 8.44954328,11.0200387 C8.44568279,11.5673443 8.02779336,11.9367607 8.02779336,11.9367607 L8.02875842,11.9367607 L8.1117594,12.0018939 C9.03442072,11.1619718 9.7968566,11.2922282 9.7968566,11.2922282" id="Shape"></path>
                        <path d="M2.96880312,5.48276231 C3.20236165,5.38457729 3.3133434,5.1143165 3.21490791,4.87906367 C3.11743105,4.64380834 2.84911954,4.53202032 2.61556348,4.63117094 C2.42833073,4.70991456 2.29901633,4.90823323 2.30383421,5.10555891 C2.2845318,5.04042576 2.27005469,4.97723873 2.26233372,4.92085321 C2.44281156,4.79544725 2.50843851,4.5281181 2.42157829,4.31909572 C2.32410143,4.0838404 2.05578992,3.97302295 1.82223386,4.07120299 C1.58867781,4.16938304 1.47865716,4.4396488 1.57612908,4.67490164 C1.6629893,4.88488215 1.90040955,5.02682275 2.11563295,4.98404272 C2.15037605,5.03070506 2.18512162,5.08611752 2.2179351,5.14638784 C2.08378305,5.00154048 1.85021958,4.95487814 1.66202572,5.03361928 C1.42846719,5.1318043 1.31748545,5.40206509 1.41592094,5.63731792 C1.51339779,5.87257325 1.78170931,5.98436127 2.01526536,5.88521065 C2.20828945,5.80355032 2.34050941,5.59550598 2.32603106,5.39233195 C2.37428646,5.52940225 2.40517031,5.67424712 2.40420674,5.80256232 C2.40227637,6.09809045 2.17643708,6.2964116 2.17643708,6.2964116 L2.17740214,6.2964116 L2.2217983,6.33140711 C2.71786711,5.87936728 3.12901768,5.94934834 3.12901768,5.94934834 L3.14638998,5.88810496 C3.14638998,5.88810496 2.85299336,5.90365907 2.63776996,5.70437232 C2.54704802,5.61979777 2.46501309,5.49244817 2.40034972,5.3563584 C2.53257214,5.51092645 2.77481027,5.56439527 2.96881029,5.48273493" id="Shape"></path>
                        <path d="M22.9958706,2.9378607 L15.2613182,0.882776745 C14.5316934,0.689323408 13.7779297,1.13164254 13.5858815,1.86559754 L12.6207734,5.55179768 L12.3437823,6.60947731 L10.0699647,15.2906628 C9.8779067,16.0246178 10.3170356,16.7848281 11.0466604,16.9782715 L11.3313602,17.0540984 L12.3814112,17.3331019 L18.7810399,19.033353 C19.5097012,19.2268063 20.2644285,18.7854603 20.4564766,18.0505322 L23.9722946,4.62447147 C24.1643526,3.89051647 23.7242602,3.13127671 22.9955989,2.93783332 M14.139592,2.68702638 C14.1617895,2.49940397 14.2380349,2.33998303 14.3876264,2.21846186 C14.5748591,2.06681051 14.7823714,1.94625245 14.999522,1.84613375 C15.1259531,1.78780458 15.2543014,1.7391986 15.3826794,1.68670534 C15.3971561,1.68087242 15.4077719,1.67990035 15.4193546,1.69351033 C15.6268546,1.93459906 15.8131361,2.19124191 15.9501616,2.48094659 C15.9781498,2.53927575 16.0022787,2.60051913 16.0283373,2.65981888 C16.0930007,2.81341635 16.0852797,2.96798939 16.0389537,3.12353051 C16.0206163,3.18380332 15.9935939,3.24115942 15.9520935,3.28782175 C15.8053951,3.45600028 15.6123711,3.56197231 15.3411614,3.46961075 C15.2021841,3.42197535 15.1018115,3.32379033 15.0390679,3.19060731 C15.0390679,3.28684869 15.0545098,3.37628359 15.0796023,3.45696837 C15.1732199,3.75831996 15.3932588,3.94693534 15.3932588,3.94693534 L15.339212,3.98776426 C15.339212,3.98776426 15.0351914,3.65918676 14.3229356,3.7175209 L14.3074936,3.65822116 L14.3065286,3.65822116 C14.3065286,3.65822116 14.5902647,3.60378176 14.8180393,3.38797779 C14.8778774,3.33159476 14.9348198,3.26354489 14.9801796,3.18285763 C14.9348198,3.20716111 14.8913897,3.2314636 14.8450639,3.24799078 C14.4860453,3.37825709 14.0961428,3.06911849 14.1395532,2.68707217 M16.9443013,11.2525351 C17.1189877,11.8192771 17.5320581,12.1721688 17.5320581,12.1721688 L17.4297559,12.2489663 C17.4297559,12.2489663 16.8593682,11.6316547 15.5207384,11.7415041 L15.4927502,11.6306817 L15.4917852,11.6297096 C15.4917852,11.6297096 16.0245193,11.5276348 16.4540025,11.1222474 C16.5669213,11.0153122 16.6721191,10.8879626 16.7589868,10.7353357 C16.6740562,10.781025 16.5910552,10.8257437 16.5051709,10.857825 C15.8286168,11.1028035 15.0961012,10.521458 15.1790923,9.80402764 C15.2196268,9.45210652 15.3653615,9.15269609 15.6452409,8.92423729 C15.9975145,8.63843981 16.3854898,8.41192216 16.7937249,8.22430224 C17.0301791,8.11542346 17.2733882,8.02404243 17.513714,7.9248918 C17.5407386,7.91322622 17.5600398,7.91128183 17.5822367,7.93752946 C17.9721391,8.39151044 18.321522,8.87271734 18.5792169,9.41711126 C18.631334,9.52793369 18.6766937,9.64167282 18.7259152,9.75347827 C18.8484846,10.0412169 18.8340087,10.3318921 18.7452176,10.6245086 C18.7104745,10.7382477 18.6622166,10.8451828 18.585007,10.9336496 C18.309943,11.2486142 17.9451429,11.4479059 17.4374865,11.273899 C17.1749737,11.1844616 16.988707,11.000719 16.8690259,10.749912 C16.8670956,10.9326741 16.8970141,11.0998671 16.9443059,11.2524965 M19.9005085,17.2292574 C19.8783106,17.4168798 19.8020656,17.5763008 19.652474,17.6978219 C19.4652413,17.8494758 19.2586926,17.9700313 19.0405784,18.07015 C18.9151134,18.1275061 18.785799,18.1770852 18.657421,18.2295784 C18.6419791,18.2354114 18.6323285,18.2363834 18.6207458,18.2227735 C18.4132458,17.9807117 18.2269643,17.7260124 18.0899388,17.4353372 C18.0629142,17.377008 18.0368581,17.3157646 18.0117631,17.2564649 C17.9461362,17.1028674 17.9548207,16.9482944 18.0011467,16.7927533 C18.018519,16.7324805 18.0455429,16.6751244 18.0870434,16.628462 C18.2347077,16.4602835 18.4277294,16.3543115 18.6979754,16.446673 C18.8369528,16.4943084 18.9373253,16.5915204 19.0000689,16.7247059 C19.001034,16.6284645 18.984627,16.5390296 18.9595345,16.4583448 C18.8659169,16.1569933 18.6468417,15.9683779 18.6468417,15.9683779 L18.7008884,15.9275489 C18.7008884,15.9275489 19.0049091,16.2561265 19.7162013,16.1977923 L19.7316432,16.256119 L19.7326085,16.2570913 C19.7326085,16.2570913 19.4498359,16.3115307 19.2210978,16.5273347 C19.1612597,16.5837177 19.1043173,16.6517676 19.0579915,16.7324548 C19.1043173,16.7081516 19.1467838,16.6838489 19.1940732,16.6673217 C19.5540554,16.5380284 19.9449461,16.8481376 19.9005475,17.2292109" id="Shape"></path>
                    </g>
                </g>
            </g>
        </g>
    </g>
</svg>