<?xml version="1.0" encoding="UTF-8"?>
<svg width="17px" height="16px" viewBox="0 0 17 16" version="1.1" xmlns="http://www.w3.org/2000/svg" xmlns:xlink="http://www.w3.org/1999/xlink">
    <!-- Generator: Sketch 49 (51002) - http://www.bohemiancoding.com/sketch -->
    <title>Promos</title>
    <desc>Created with Sketch.</desc>
    <defs></defs>
    <g id="Re-Design" stroke="none" stroke-width="1" fill="none" fill-rule="evenodd">
        <g id="1.5_BetOnline_Desktop_VP_DataAnimation" transform="translate(-1128.000000, -83.000000)" fill="#90918D" fill-rule="nonzero">
            <g id="Group-30" transform="translate(544.000000, 79.000000)">
                <g id="Group-28" transform="translate(570.000000, 4.000000)">
                    <g id="np_gift_917082_000000" transform="translate(14.000000, 0.000000)">
                        <path d="M8.31988648,2.19637308 C7.90388903,1.0308037 7.07189414,-0.00247521712 5.55745545,4.45391685e-06 C5.03502506,0.0379413544 4.57921666,0.255885841 4.24446352,0.561815255 C3.79841026,0.96945251 3.54084544,1.52396895 3.53597827,2.07367069 C3.53597827,2.48533741 3.73179035,2.82596155 4.0039754,3.09475789 L0,3.09475789 L0,6.40263906 L7.90395143,6.40263906 L7.90395143,4.74871914 L8.73594632,4.74871914 L8.73594632,6.40263906 L16.6398977,6.40263906 L16.6398977,3.09475789 L12.6359224,3.09475789 C12.9081095,2.82596155 13.1039195,2.48533741 13.1039195,2.07367069 C13.0990444,1.5247955 12.8414875,0.969431846 12.3954342,0.561815255 C12.0606811,0.255885841 11.6048727,0.0379434208 11.0824423,4.45391685e-06 C9.56796201,-0.00241715149 8.73600872,1.03078304 8.32001127,2.19637308 L8.31988648,2.19637308 Z M5.60945513,0.82658213 C6.73882579,0.801560183 7.56025434,2.42400688 7.66344251,3.09403465 L6.03194213,3.09403465 C5.73051039,3.09403465 5.25762529,2.9600415 4.90745944,2.74533091 C4.55970638,2.53224452 4.37121794,2.27797492 4.36795236,2.08020049 C4.36795236,1.65158935 4.58651742,1.38682247 4.80994964,1.17615375 C5.01875956,0.984851267 5.28119155,0.849250456 5.60945513,0.827450015 L5.60945513,0.82658213 Z M11.0442537,0.829003736 C11.366007,0.85321979 11.624383,0.987210881 11.8299273,1.1752898 C12.1077928,1.4295594 12.2678686,1.79440166 12.2719246,2.07288938 C12.1589875,2.40059858 11.9558705,2.60482015 11.7324175,2.74446696 C11.3822309,2.9591858 10.9093666,3.0931707 10.6079348,3.0931707 L8.97643444,3.0931707 C9.15193336,2.47647651 9.98393865,0.82344514 11.0442329,0.828197843 L11.0442537,0.829003736 Z M1.03993121,6.81513626 L1.03993121,15.7039304 L7.90388903,15.7039304 L7.90388903,8.05497178 L8.73588392,8.05497178 L8.73588392,15.7039304 L15.5998417,15.7039304 L15.5998417,6.81513626 L1.03993121,6.81513626 Z" id="Shape"></path>
                    </g>
                </g>
            </g>
        </g>
    </g>
</svg>