<?xml version="1.0" encoding="UTF-8"?>
<svg width="38px" height="40px" viewBox="0 0 38 40" version="1.1" xmlns="http://www.w3.org/2000/svg" xmlns:xlink="http://www.w3.org/1999/xlink">
    <!-- Generator: Sketch 49 (51002) - http://www.bohemiancoding.com/sketch -->
    <title>Protection</title>
    <desc>Created with Sketch.</desc>
    <defs></defs>
    <g id="Casino" stroke="none" stroke-width="1" fill="none" fill-rule="evenodd">
        <g id="1.2_BOL_Casino_Lander_Tile" transform="translate(-470.000000, -3342.000000)">
            <g id="Group-4" transform="translate(-147.000000, 3273.000000)">
                <g id="Group-46">
                    <g id="Group-55" transform="translate(247.000000, 43.000000)">
                        <g id="Group-35">
                            <g id="Group" transform="translate(370.000000, 26.000000)">
                                <g id="Group-6" fill="#4B4B4B" fill-rule="nonzero">
                                    <g id="Group-10">
                                        <path d="M16.3275,3.88257072 C12.2543679,6.85489028 7.83868741,9.20349296 3.0051417,11.0356164 C3.1619847,24.1645667 6.58459045,29.4783102 15.1731588,34.952106 C15.4780266,35.146409 15.7882003,35.3423437 16.3274546,35.682084 C16.8684338,35.3412228 17.1795018,35.1447011 17.4852166,34.9498274 C26.0704484,29.4772904 29.4929896,24.1623487 29.6498566,11.0356157 C24.8163117,9.20349236 20.4006317,6.8548899 16.3275,3.88257072 Z M32.620752,10.0692849 C32.620752,24.9001586 28.7120373,31.195421 19.1326911,37.3016426 C18.7700477,37.5328046 18.4000747,37.7662035 17.6783281,38.220793 C17.4129584,38.3883742 17.310119,38.4534571 17.1496098,38.5554794 L16.3275508,39.0779941 L15.5054606,38.5555242 C15.34495,38.4535135 15.2420762,38.3884163 14.9766726,38.2208327 C14.256672,37.7673885 13.8876333,37.5346039 13.5258651,37.3040362 C3.94308615,31.1965952 0.0342482609,24.9026368 0.0342482609,10.0692849 L0.0342482609,9.0922104 L0.992263183,8.74649057 C6.29533567,6.83276535 11.0571827,4.29707078 15.4014534,0.982584327 L16.3275,0.276051671 L17.2535468,0.982584327 C21.5978175,4.29707078 26.3596645,6.83276535 31.662737,8.74649057 L32.620752,9.0922104 L32.620752,10.0692849 Z" id="Fill-15"></path>
                                    </g>
                                </g>
                                <g id="Shape" transform="translate(6.469565, 1.584000)">
                                    <g id="path-1-link" transform="translate(1.200000, 1.584000)" fill="#4B4B4B">
                                        <polygon id="path-1" points="2.76732912 11.7807362 0.00807469043 14.5658169 8.11387249 23.7034285 27.9130435 2.96080162 25.2943627 0.0748502885 8.20662212 17.880483"></polygon>
                                    </g>
                                    <polygon stroke="#FFFFFF" stroke-width="1.28304" points="9.42444315 18.5091952 26.5079065 0.708019536 29.9992867 4.55574069 9.29605167 26.2455116 0.319104333 16.1258589 3.99268297 12.417896"></polygon>
                                </g>
                            </g>
                        </g>
                    </g>
                </g>
            </g>
        </g>
    </g>
</svg>