<?xml version="1.0" encoding="UTF-8"?>
<svg width="22px" height="19px" viewBox="0 0 22 19" version="1.1" xmlns="http://www.w3.org/2000/svg" xmlns:xlink="http://www.w3.org/1999/xlink">
    <!-- Generator: Sketch 49 (51002) - http://www.bohemiancoding.com/sketch -->
    <title>Sports</title>
    <desc>Created with Sketch.</desc>
    <defs></defs>
    <g id="Re-Design" stroke="none" stroke-width="1" fill="none" fill-rule="evenodd">
        <g id="1.5_BetOnline_Desktop_VP_DataAnimation" transform="translate(-551.000000, -79.000000)" fill="#90918D" fill-rule="nonzero">
            <g id="Group-30" transform="translate(544.000000, 79.000000)">
                <g id="Group-22">
                    <g id="np_football-uniform_91300_000000" transform="translate(7.000000, 0.000000)">
                        <path d="M0,6.62508528 C1.16374266,7.6197087 2.1950133,8.92823925 3.44918301,10 C3.56519014,9.88655229 3.76615708,9.68313857 4,9.44351462 C2.77962059,8.36869942 0.884276987,6.31971559 0.563678349,6 C0.352672532,6.22982719 0.15992517,6.44204373 7.01528748e-05,6.62493506 L0,6.62508528 Z" id="Shape"></path>
                        <path d="M21.4363217,6 C21.1156996,6.3197907 19.2202859,8.36867438 18,9.44351462 C18.2338429,9.68214212 18.4348075,9.88653477 18.550817,10 C19.8040747,8.9281391 20.8362573,7.61958352 22,6.62508528 C21.839233,6.44220146 21.6464997,6.22998492 21.4363918,6.00015022 L21.4363217,6 Z" id="Shape"></path>
                        <polygon id="Shape" points="12.2044644 7.19701223 12.4038135 7.46842484 12.080213 7.77232541 11.8808638 7.5009128 11.670387 7.69792504 11.8706642 7.96933765 11.5461379 8.27323821 11.3467888 8.0018256 11.136312 8.19884052 11.3356611 8.47025313 11.0120605 8.7741537 10.8127114 8.50274109 10.6022346 8.699756 10.8015837 8.97116861 10.4779832 9.27506918 10.278634 9.00365657 10.0681572 9.20067149 10.2675063 9.47313037 9.94483148 9.77598467 9.74455424 9.50352579 9.5340774 9.70158697 9.73435464 9.97299958 9.41075409 10.2769001 9.21047684 10.0054875 9 10.2025025 9.58505878 11 9.79553563 10.8019388 9.59618648 10.5305262 9.91978704 10.2266256 10.1191362 10.4980382 10.329613 10.301026 10.1302639 10.0296134 10.4538644 9.72571284 10.6532136 9.99817171 10.8636904 9.80011053 10.6643413 9.52869792 10.9879418 9.22479735 11.187291 9.49620996 11.3977678 9.29919504 11.1984187 9.02778244 11.5220192 8.72388187 11.7222965 8.99529448 11.9318452 8.79827956 11.7324961 8.52686695 12.0560966 8.22296638 12.2554458 8.49437899 12.4659226 8.29736676 12.2665735 8.02595415 12.590174 7.72205358 12.7895232 7.99346619 13 7.79645127 12.4149412 7"></polygon>
                        <path d="M18.990591,2.9010708 C18.0749074,1.76239973 16.794052,1.3178037 15.5205893,0.825400855 C15.4907804,0.814145487 15.4609714,0.801952232 15.4311624,0.790697104 C14.6542693,0.369560253 13.7618606,0.133191523 13.0101978,0 L10.9999529,1.18650187 L8.99063808,0 C8.23890375,0.132250274 7.34556492,0.369560253 6.56967341,0.790697104 C6.53986445,0.801952472 6.51005549,0.814145728 6.48024652,0.825400855 C5.20685536,1.31782771 3.92597618,1.76239973 3.01024486,2.9010708 C2.54169567,3.48260415 1.72287925,4.32300495 1,5.06210145 C2.1383208,6.00380657 4.2110214,8.06545383 4.51841142,8.37400098 C4.88823332,8.01757499 5.26735563,7.65178454 5.50024709,7.4332323 C5.53191851,7.44730157 5.56452236,7.46137132 5.59898868,7.47450319 L5.59898868,19 L10.9944108,19 L11.0000001,19 L11.0055892,19 L16.4010113,19 L16.4010113,7.47450319 C16.4354776,7.46043392 16.4680815,7.44636417 16.4997529,7.4332323 C16.7326348,7.65177493 17.1117667,8.01757499 17.4815886,8.37400098 C17.7899325,8.0654058 19.8625854,6.00380657 21,5.06210145 C20.2780746,4.32300495 19.4592582,3.48260415 18.9906852,2.9010708 L18.990591,2.9010708 Z M8.35165317,11.3989637 C8.30134995,11.3914601 8.25104673,11.3792668 8.20167593,11.3670741 C7.62319129,11.2235672 7.42199272,10.9806338 7.38750971,10.3822204 C7.36794764,10.0455078 7.44433275,9.47710868 7.53841699,9.27730939 C8.12808595,9.99297071 8.71494095,10.7057987 9.31670043,11.4345943 C8.98229157,11.4664839 8.6664835,11.4496014 8.35162932,11.3989517 L8.35165317,11.3989637 Z M14.1970714,7.99894211 C13.8412239,8.83747002 13.3633505,9.59063723 12.6647,10.181535 C12.074101,10.680517 11.3875648,11.0003736 10.6488749,11.2085769 C10.4970352,11.2507842 10.344275,11.2901774 10.1896261,11.3183164 C10.1467751,11.32582 10.0778425,11.3033092 10.049896,11.2695443 C9.30932211,10.3766065 8.57063219,9.48181973 7.83659246,8.58314313 C7.80678349,8.54656408 7.79653637,8.4677753 7.81516721,8.42369268 C8.14678595,7.61798842 8.5967105,6.89389908 9.25064758,6.3076835 C9.99122144,5.64362279 10.8724459,5.28064168 11.8282882,5.0770966 C11.8748641,5.06677912 11.9512489,5.10711092 11.9857176,5.14744295 C12.3546095,5.5863963 12.7178973,6.02911945 13.082139,6.47181858 C13.4407765,6.90702614 13.7984841,7.34317015 14.1589817,7.77556837 C14.2185997,7.84685357 14.2372291,7.90594335 14.1971754,7.99880044 L14.1970714,7.99894211 Z M14.4681422,7.13885191 C13.873823,6.41850836 13.2888281,5.70755328 12.6823946,4.97126613 C12.8323718,4.96751434 12.9599995,4.94969328 13.0848156,4.96470044 C13.3875554,5.00127948 13.6931092,5.0312938 13.9874786,5.10351544 C14.3526265,5.19261954 14.5501287,5.45242585 14.5994924,5.83041412 C14.6479308,6.20933884 14.5920401,6.84621858 14.4681469,7.13884614 L14.4681422,7.13885191 Z" id="Shape"></path>
                    </g>
                </g>
            </g>
        </g>
    </g>
</svg>