<?xml version="1.0" encoding="UTF-8"?>
<svg width="23px" height="25px" viewBox="0 0 23 25" version="1.1" xmlns="http://www.w3.org/2000/svg" xmlns:xlink="http://www.w3.org/1999/xlink">
    <!-- Generator: Sketch 49 (51002) - http://www.bohemiancoding.com/sketch -->
    <desc>Created with Sketch.</desc>
    <defs></defs>
    <g id="Re-Design" stroke="none" stroke-width="1" fill="none" fill-rule="evenodd">
        <g id="1.1_BetOnline_Desktop" transform="translate(-928.000000, -3630.000000)" fill="#EE3536" fill-rule="nonzero">
            <g id="Group-46" transform="translate(-126.000000, 3419.000000)">
                <g id="Group-36" transform="translate(1004.000000, 194.000000)">
                    <g id="telephone-copy" transform="translate(50.000000, 17.000000)">
                        <path d="M16.9048664,16.0152888 C16.1784187,15.2396252 15.2715158,15.2396252 14.5496952,16.0152888 C13.9990756,16.605794 13.448456,17.1962993 12.9070905,17.796813 C12.7590248,17.9619543 12.6340943,17.9969843 12.4536391,17.8868901 C12.0973558,17.6767103 11.7179373,17.5065647 11.3755352,17.2763678 C9.77920111,16.1904387 8.44198211,14.7942441 7.25745593,13.2228997 C6.6698199,12.4422318 6.14696265,11.6065168 5.78142527,10.6657118 C5.70739239,10.4755491 5.72127356,10.3504421 5.86471227,10.1953094 C6.41533186,9.619817 6.95207028,9.02931178 7.49343576,8.43880655 C8.24764578,7.61810438 8.24764578,6.65728232 7.4888087,5.83157587 C7.05849255,5.3611734 6.62817641,4.9007795 6.19786026,4.43037704 C5.75366294,3.94996601 5.31409268,3.4645507 4.86526831,2.98914395 C4.13882062,2.22348887 3.23191777,2.22348887 2.51009714,2.99414823 C1.95485049,3.58465345 1.42273913,4.19017152 0.858238372,4.77066818 C0.335381117,5.30612631 0.0716389614,5.96168719 0.0161142971,6.72734227 C-0.0717997548,7.97340837 0.210450622,9.14941453 0.608377383,10.295395 C1.42273913,12.6674245 2.66278996,14.774227 4.16658295,16.7058797 C6.19786026,19.3181146 8.62243727,21.3848829 11.4588222,22.8761588 C12.7358895,23.5467325 14.0592273,24.0621735 15.4982415,24.1472463 C16.4884314,24.2072977 17.3490637,23.9370665 18.0384949,23.1013515 C18.5104546,22.5308634 19.0425659,22.0104181 19.5422879,21.4649514 C20.2826168,20.6542578 20.2872438,19.6734186 19.551542,18.8727336 C18.6724015,17.9169158 17.7886339,16.9661023 16.9048664,16.0152888 Z" id="Shape"></path>
                        <path d="M16.1655054,12.0776333 L17.8670566,11.7565822 C17.5996041,10.029022 16.8618041,8.46453537 15.7412704,7.22109971 C14.5561791,5.91141543 13.0575229,5.08585569 11.4066954,4.8310533 L11.1669104,6.72168703 C12.4442266,6.92043289 13.6062616,7.55743887 14.5239004,8.57155237 C15.3908154,9.52960936 15.9579991,10.7424687 16.1655054,12.0776333 Z" id="Shape"></path>
                        <path d="M18.736742,3.85098306 C16.7362778,1.74234709 14.2051741,0.410837525 11.4110985,0 L11.1669104,1.83639424 C13.580616,2.19278341 15.7689172,3.34609839 17.4970177,5.16269323 C19.1358956,6.89019077 20.2112625,9.07307449 20.6010243,11.4737516 L22.3338208,11.1619111 C21.878316,8.38009553 20.6338958,5.85567219 18.736742,3.85098306 Z" id="Shape"></path>
                    </g>
                </g>
            </g>
        </g>
    </g>
</svg>