<?xml version="1.0" encoding="UTF-8"?>
<svg width="30px" height="29px" viewBox="0 0 30 29" version="1.1" xmlns="http://www.w3.org/2000/svg" xmlns:xlink="http://www.w3.org/1999/xlink">
    <!-- Generator: Sketch 49 (51002) - http://www.bohemiancoding.com/sketch -->
    <desc>Created with Sketch.</desc>
    <defs></defs>
    <g id="Re-Design" stroke="none" stroke-width="1" fill="none" fill-rule="evenodd">
        <g id="2.1_BetOnline_Mobile" transform="translate(-43.000000, -2688.000000)" fill-rule="nonzero">
            <g id="Group-6" transform="translate(14.000000, 2688.000000)">
                <g id="Group-52">
                    <g id="Group-46" transform="translate(29.646000, 0.000000)">
                        <path d="M5.7326204,5.86043675 C7.99498795,3.48935905 11.0179959,2.16294754 14.24697,2.12413227 C14.3004168,2.12346303 14.3532119,2.12346303 14.4073106,2.12346303 C17.1461375,2.12346303 19.7728565,3.07109104 21.9048658,4.81577056 L21.7497394,4.81710902 C21.1852881,4.82848591 20.7257753,5.31233835 20.7257753,5.90192893 C20.7375076,6.49085029 21.1976722,6.9532874 21.7777664,6.9532874 L24.521156,6.9184875 C24.7936047,6.9184875 25.0608392,6.80404938 25.2550729,6.60328073 C25.4493067,6.40385055 25.5562005,6.13615901 25.5562005,5.84437525 L25.5223073,3.01621427 C25.5105751,2.42260832 25.0569284,1.96485581 24.4853074,1.96485581 L24.4651019,1.96485581 C23.9013024,1.97690192 23.4424413,2.4594159 23.4424413,3.04432188 L23.4457003,3.3628748 C20.9076251,1.1892196 17.7184103,0 14.3844979,0 L14.2176394,0 C10.4339909,0.0414921866 6.89280888,1.59744919 4.24653627,4.38077184 C2.35177901,6.36838142 1.05797331,8.8552357 0.507209677,11.5716355 C-0.0272591762,14.2197739 0.15850134,16.9569197 1.04819644,19.4979816 C1.20527814,19.9021958 1.59635291,20.1739027 2.02197262,20.1739027 C2.13016997,20.1739027 2.24097449,20.1551643 2.37589528,20.1123337 C2.63465642,20.0159646 2.84257784,19.8225576 2.96250744,19.5655736 C3.08308883,19.3059129 3.09677645,19.0154676 3.00291851,18.7491146 C1.42167285,14.2344969 2.46714606,9.29558826 5.7326204,5.86043675" id="Fill-23" fill="#EE3536"></path>
                        <path d="M27.9830377,9.07274724 L27.9823859,9.07140877 C27.7868485,8.51728732 27.1898076,8.22951893 26.6540352,8.42827988 C26.3920151,8.5259873 26.1821384,8.72207134 26.0635123,8.98173212 C25.9461899,9.23938521 25.9331541,9.52782283 26.027012,9.79082976 C27.6036951,14.3094627 26.5562665,19.2456945 23.291444,22.6741537 C20.9990941,25.0800313 17.9265499,26.4051043 14.6389147,26.4051043 C11.8909626,26.4051043 9.25316331,25.4568071 7.12180582,23.7194891 L7.27497677,23.7181507 C7.83942801,23.7061046 8.29828908,23.2229214 8.29828908,22.6333308 C8.28655684,22.0437401 7.8263922,21.5819723 7.24629796,21.5819723 L4.49182799,21.6167722 C3.92737673,21.6288183 3.46786388,22.1113323 3.46786388,22.6969075 L3.50110524,25.5250684 C3.51283748,26.114659 3.97365391,26.5764269 4.5576589,26.5764269 C5.12211016,26.56505 5.58162301,26.082536 5.58162301,25.4969608 L5.57836405,25.1764003 C8.11709111,27.3480477 11.308913,28.5352597 14.6447808,28.5352597 C18.4962155,28.5352597 22.0973623,26.9813103 24.7833943,24.1605109 C26.6774997,22.1735706 27.9700018,19.6873854 28.5214172,16.9703164 C29.0558861,14.3355627 28.868822,11.6051091 27.9830377,9.07274724" id="Fill-25" fill="#EE3536"></path>
                        <path d="M14.7112636,5.01921613 C9.86258817,5.01921613 5.9120812,9.07541198 5.9120812,14.0538051 C5.9120812,19.0321983 9.86258817,23.0883941 14.7112636,23.0883941 C19.5599388,23.0883941 23.5104459,19.0321983 23.5104459,14.0538051 C23.5104459,9.07541198 19.5599388,5.01921613 14.7112636,5.01921613 Z M14.7112636,6.95529509 C18.5418409,6.95529509 21.6248136,10.1214166 21.6248136,14.0538051 C21.6248136,17.9861937 18.5418409,21.1523152 14.7112636,21.1523152 C10.8813379,21.1523152 7.79836516,17.9861937 7.79836516,14.0538051 C7.79836516,10.1214166 10.8813379,6.95529509 14.7112636,6.95529509 Z" id="Fill-27" fill="#EE3536"></path>
                        <ellipse id="Oval-3" fill="#EE3536" cx="15.3325021" cy="14.1818997" rx="7.79094269" ry="7.77717082"></ellipse>
                        <path d="M14.7927205,8.24471867 C14.310395,8.30160313 13.9493027,8.72522497 13.9577759,9.22313121 L13.9577759,14.0629941 C13.9564723,14.4143392 14.1409292,14.7382458 14.4387979,14.9102377 L17.267572,16.5230791 C17.4859221,16.6495633 17.7446833,16.6810172 17.9851943,16.6100789 C18.2270088,16.5411484 18.4310195,16.3745103 18.5535563,16.1503187 C18.6767448,15.9261271 18.7073791,15.659774 18.6382891,15.4128285 C18.5711546,15.1645446 18.4088586,14.955076 18.1905085,14.829261 L15.8434081,13.4881264 L15.8434081,9.22313121 C15.8479706,8.96079352 15.750202,8.70782502 15.5703076,8.52244863 C15.3917168,8.3357338 15.1459915,8.23267256 14.8904893,8.23468025 C14.8578997,8.23601871 14.8259619,8.24003407 14.7927205,8.24471867 Z" id="Path" fill="#FFFFFF"></path>
                    </g>
                </g>
            </g>
        </g>
    </g>
</svg>